<?xml version="1.0" encoding="UTF-8"?>
<svg version="1.1" xmlns="http://www.w3.org/2000/svg" width="33" height="33">
<path d="M0 0 C4.94353493 4.69635818 6.77579056 7.88485992 7.125 14.75 C6.95791648 20.37300316 5.82008014 23.62126912 2.203125 27.88671875 C-2.56619011 32.05440007 -7.23539559 31.79729414 -13.36328125 31.6875 C-18.82273985 31.14359379 -21.19482371 28.71452303 -24.875 24.9375 C-27.3725937 19.46200612 -27.34688497 14.28846632 -26.5 8.375 C-24.85637444 4.26943317 -22.41583544 2.06746094 -18.9375 -0.5625 C-12.55446112 -2.53543929 -6.1154197 -2.839302 0 0 Z " fill="#484748" transform="translate(26.5,1.625)"/>
<path d="M0 0 C10.66224287 -0.62110153 10.66224287 -0.62110153 15.5 1.625 C20.44353493 6.32135818 22.27579056 9.50985992 22.625 16.375 C22.45791648 21.99800316 21.32008014 25.24626912 17.703125 29.51171875 C12.93380989 33.67940007 8.26460441 33.42229414 2.13671875 33.3125 C-3.32273985 32.76859379 -5.69482371 30.33952303 -9.375 26.5625 C-11.80357623 21.23831366 -11.85447968 15.76581331 -11 10 C-9.47265625 8.10546875 -9.47265625 8.10546875 -8 7 C-8.15855469 7.56976563 -8.31710938 8.13953125 -8.48046875 8.7265625 C-9.70312134 14.07681669 -9.76965853 18.54030279 -7.1875 23.4375 C-3.55271204 27.69539447 -0.73687328 28.48718868 4.578125 28.96484375 C8.46606936 29.02128165 11.33633706 28.34977056 15 27 C16.46804363 25.14853436 16.46804363 25.14853436 17 23 C17.66 22.01 18.32 21.02 19 20 C19.75880093 15.36778501 19.41508256 11.83016511 17.3125 7.625 C12.68247688 2.36929808 8.78580352 1.61762917 2.01171875 1.11328125 C1.34785156 1.07589844 0.68398437 1.03851563 0 1 C0 0.67 0 0.34 0 0 Z " fill="#060606" transform="translate(11,0)"/>
<path d="M0 0 C12.44764285 -0.36973197 12.44764285 -0.36973197 14.92578125 1.2890625 C16 3 16 3 15.875 6.5625 C15 10 15 10 12 12 C9.51953125 12.1953125 9.51953125 12.1953125 6.8125 12.125 C5.91144531 12.10695313 5.01039062 12.08890625 4.08203125 12.0703125 C3.39496094 12.04710937 2.70789063 12.02390625 2 12 C2 14.64 2 17.28 2 20 C1.34 20 0.68 20 0 20 C0 13.4 0 6.8 0 0 Z " fill="#F387F3" transform="translate(10,6)"/>
<path d="M0 0 C1.64574566 -0.02688151 3.29161413 -0.04634123 4.9375 -0.0625 C5.85402344 -0.07410156 6.77054688 -0.08570313 7.71484375 -0.09765625 C10 0 10 0 11 1 C11.1875 3.4375 11.1875 3.4375 11 6 C9 8 9 8 6.8359375 8.1953125 C5.61777344 8.16050781 5.61777344 8.16050781 4.375 8.125 C3.55773437 8.10695313 2.74046875 8.08890625 1.8984375 8.0703125 C1.27195312 8.04710937 0.64546875 8.02390625 0 8 C0 5.36 0 2.72 0 0 Z " fill="#625661" transform="translate(12,8)"/>
<path d="M0 0 C0.79921875 0.04511719 1.5984375 0.09023437 2.421875 0.13671875 C3.02515625 0.19472656 3.6284375 0.25273437 4.25 0.3125 C4.25 1.97916667 4.25 3.64583333 4.25 5.3125 C0.62 5.3125 -3.01 5.3125 -6.75 5.3125 C-6.75 11.5825 -6.75 17.8525 -6.75 24.3125 C-7.08 24.3125 -7.41 24.3125 -7.75 24.3125 C-8.02646774 21.25031928 -8.27190671 18.1908422 -8.5 15.125 C-8.58121094 14.26068359 -8.66242187 13.39636719 -8.74609375 12.50585938 C-9.03546938 8.30991278 -9.11533916 5.98228846 -7.0625 2.21875 C-4.40730655 0.03000946 -3.37747777 -0.24834395 0 0 Z " fill="#7C637B" transform="translate(16.75,0.6875)"/>
<path d="M0 0 C2.4375 1.1875 2.4375 1.1875 5 3 C5.91785348 5.82416455 6 8.02922824 6 11 C5.34 11 4.68 11 4 11 C3.5978125 9.824375 3.5978125 9.824375 3.1875 8.625 C2.15185568 5.71885077 2.15185568 5.71885077 -1 4 C-3.50896686 3.54398739 -3.50896686 3.54398739 -6.1875 3.375 C-7.08855469 3.30023438 -7.98960938 3.22546875 -8.91796875 3.1484375 C-9.60503906 3.09945313 -10.29210938 3.05046875 -11 3 C-11 2.67 -11 2.34 -11 2 C-7.37 2 -3.74 2 0 2 C0 1.34 0 0.68 0 0 Z " fill="#5D595C" transform="translate(22,2)"/>
<path d="M0 0 C0.33 0 0.66 0 1 0 C1 2.64 1 5.28 1 8 C4.3 8 7.6 8 11 8 C11 8.33 11 8.66 11 9 C6.545 9.495 6.545 9.495 2 10 C2 12.64 2 15.28 2 18 C1.34 18 0.68 18 0 18 C0 12.06 0 6.12 0 0 Z " fill="#F98AF9" transform="translate(10,8)"/>
<path d="M0 0 C-0.3125 3.375 -0.3125 3.375 -1 7 C-4.08888522 9.05925681 -4.70935927 9.2390374 -8.1875 9.125 C-10.0746875 9.063125 -10.0746875 9.063125 -12 9 C-12 8.67 -12 8.34 -12 8 C-9.69 8 -7.38 8 -5 8 C-4.566875 6.2984375 -4.566875 6.2984375 -4.125 4.5625 C-3.75375 3.386875 -3.3825 2.21125 -3 1 C-1 0 -1 0 0 0 Z " fill="#E07FE0" transform="translate(26,9)"/>
</svg>
