<?xml version="1.0" encoding="UTF-8"?>
<svg version="1.1" xmlns="http://www.w3.org/2000/svg" width="33" height="33">
<path d="M0 0 C4.94353493 4.69635818 6.77579056 7.88485992 7.125 14.75 C6.95791648 20.37300316 5.82008014 23.62126912 2.203125 27.88671875 C-2.56619011 32.05440007 -7.23539559 31.79729414 -13.36328125 31.6875 C-18.82273985 31.14359379 -21.19482371 28.71452303 -24.875 24.9375 C-27.3725937 19.46200612 -27.34688497 14.28846632 -26.5 8.375 C-24.85637444 4.26943317 -22.41583544 2.06746094 -18.9375 -0.5625 C-12.55446112 -2.53543929 -6.1154197 -2.839302 0 0 Z " fill="#473A3A" transform="translate(26.5,1.625)"/>
<path d="M0 0 C10.66224287 -0.62110153 10.66224287 -0.62110153 15.5 1.625 C20.44353493 6.32135818 22.27579056 9.50985992 22.625 16.375 C22.45791648 21.99800316 21.32008014 25.24626912 17.703125 29.51171875 C12.93380989 33.67940007 8.26460441 33.42229414 2.13671875 33.3125 C-3.32273985 32.76859379 -5.69482371 30.33952303 -9.375 26.5625 C-11.80357623 21.23831366 -11.85447968 15.76581331 -11 10 C-9.47265625 8.10546875 -9.47265625 8.10546875 -8 7 C-8.15726563 7.57105469 -8.31453125 8.14210938 -8.4765625 8.73046875 C-9.5135995 13.22687544 -10.03758047 17.80032941 -8.0234375 22.0703125 C-5.74510545 25.41093433 -3.82972318 27.50598711 0 29 C5.01815989 29.7121481 8.94174495 29.52912753 13.5 27.25 C16.71021246 24.36080878 17.82702123 22.46227405 18.3359375 18.16015625 C18.50373867 11.73068642 18.50373867 11.73068642 16.1875 5.875 C12.45317366 2.67414885 10.15804086 1.71703818 5.3125 1.375 C4.31863281 1.30023438 3.32476562 1.22546875 2.30078125 1.1484375 C1.54152344 1.09945312 0.78226563 1.05046875 0 1 C0 0.67 0 0.34 0 0 Z " fill="#050505" transform="translate(11,0)"/>
<path d="M0 0 C4.55399994 0.79915354 7.18208063 2.97697309 10.02734375 6.53125 C11.34963564 9.17583379 11.12411569 11.20886301 11.08984375 14.15625 C11.08082031 15.15914062 11.07179688 16.16203125 11.0625 17.1953125 C11.05089844 17.96617188 11.03929688 18.73703125 11.02734375 19.53125 C10.36734375 19.53125 9.70734375 19.53125 9.02734375 19.53125 C9.02734375 18.21125 9.02734375 16.89125 9.02734375 15.53125 C8.44984375 15.4075 7.87234375 15.28375 7.27734375 15.15625 C5.00398608 14.52476176 3.10199085 13.64266809 1.02734375 12.53125 C1.02734375 10.88125 1.02734375 9.23125 1.02734375 7.53125 C2.67734375 7.86125 4.32734375 8.19125 6.02734375 8.53125 C5.69734375 7.54125 5.36734375 6.55125 5.02734375 5.53125 C2.71734375 5.86125 0.40734375 6.19125 -1.97265625 6.53125 C-1.97265625 5.87125 -1.97265625 5.21125 -1.97265625 4.53125 C-2.96265625 5.02625 -2.96265625 5.02625 -3.97265625 5.53125 C-4.43788688 7.42658342 -4.43788688 7.42658342 -4.59765625 9.59375 C-4.78328125 11.5428125 -4.78328125 11.5428125 -4.97265625 13.53125 C-6.95265625 13.53125 -8.93265625 13.53125 -10.97265625 13.53125 C-11.22325815 12.11821762 -11.44727546 10.70045526 -11.66015625 9.28125 C-11.78777344 8.49234375 -11.91539063 7.7034375 -12.046875 6.890625 C-11.97265625 4.53125 -11.97265625 4.53125 -10.8515625 2.2734375 C-7.61068688 -0.73161557 -4.22331166 -0.12285998 0 0 Z " fill="#635B5B" transform="translate(18.97265625,0.46875)"/>
<path d="M0 0 C2.62186247 2.48014018 3.2761214 3.21837413 3.41015625 6.7890625 C3.39855469 7.78679688 3.38695312 8.78453125 3.375 9.8125 C3.36597656 10.81539062 3.35695313 11.81828125 3.34765625 12.8515625 C3.33605469 13.62242188 3.32445312 14.39328125 3.3125 15.1875 C2.6525 15.1875 1.9925 15.1875 1.3125 15.1875 C1.3125 13.8675 1.3125 12.5475 1.3125 11.1875 C0.735 11.06375 0.1575 10.94 -0.4375 10.8125 C-2.71085767 10.18101176 -4.6128529 9.29891809 -6.6875 8.1875 C-6.6875 6.5375 -6.6875 4.8875 -6.6875 3.1875 C-4.2125 3.6825 -4.2125 3.6825 -1.6875 4.1875 C-2.35618314 1.07417752 -2.35618314 1.07417752 -4.75 0 C-5.389375 -0.268125 -6.02875 -0.53625 -6.6875 -0.8125 C-3.55959852 -2.20267844 -2.9246159 -1.97241538 0 0 Z " fill="#595151" transform="translate(26.6875,4.8125)"/>
<path d="M0 0 C0.33 0 0.66 0 1 0 C1 2.64 1 5.28 1 8 C2.98 8 4.96 8 7 8 C7 5.36 7 2.72 7 0 C7.66 0 8.32 0 9 0 C9 6.6 9 13.2 9 20 C8.34 20 7.68 20 7 20 C7 17.03 7 14.06 7 11 C5.35 11 3.7 11 2 11 C2 13.97 2 16.94 2 20 C1.34 20 0.68 20 0 20 C0 13.4 0 6.8 0 0 Z " fill="#CC3333" transform="translate(7,6)"/>
<path d="M0 0 C2.625 0.375 2.625 0.375 5 1 C5.33 2.32 5.66 3.64 6 5 C4.02 4.34 2.04 3.68 0 3 C0.03093173 5.41585574 0.03093173 5.41585574 1 8 C3.96707046 9.85916824 3.96707046 9.85916824 7 11 C7.25 17.625 7.25 17.625 5 21 C2.5 21.3125 2.5 21.3125 0 21 C-0.66 20.34 -1.32 19.68 -2 19 C-2 18.01 -2 17.02 -2 16 C-1.34 16 -0.68 16 0 16 C0.33 16.66 0.66 17.32 1 18 C1.99 18 2.98 18 4 18 C4.33 16.02 4.66 14.04 5 12 C3.824375 11.8453125 3.824375 11.8453125 2.625 11.6875 C0 11 0 11 -2 8 C-2.25 4.9375 -2.25 4.9375 -2 2 C-1.34 1.34 -0.68 0.68 0 0 Z " fill="#D73333" transform="translate(20,5)"/>
<path d="M0 0 C0.66 0 1.32 0 2 0 C2 5.61 2 11.22 2 17 C1.01 17 0.02 17 -1 17 C-3.69111257 12.96333114 -3.55611599 9.73943626 -3 5 C-1.625 1.9375 -1.625 1.9375 0 0 Z " fill="#4C4C4C" transform="translate(4,6)"/>
<path d="M0 0 C0.33 0 0.66 0 1 0 C1.2475 1.27875 1.495 2.5575 1.75 3.875 C2.51990586 7.26747318 2.51990586 7.26747318 5.125 9.5 C5.74375 9.665 6.3625 9.83 7 10 C7 11.65 7 13.3 7 15 C6.01 15 5.02 15 4 15 C4 14.34 4 13.68 4 13 C2.68 13 1.36 13 0 13 C0 8.71 0 4.42 0 0 Z " fill="#4D4848" transform="translate(17,7)"/>
<path d="M0 0 C0.66 0.33 1.32 0.66 2 1 C1.01 2.485 1.01 2.485 0 4 C-0.3626117 5.92744369 -0.3626117 5.92744369 -0.4140625 8.01171875 C-0.45273438 8.76904297 -0.49140625 9.52636719 -0.53125 10.30664062 C-0.5621875 11.09232422 -0.593125 11.87800781 -0.625 12.6875 C-0.66367188 13.48478516 -0.70234375 14.28207031 -0.7421875 15.10351562 C-0.83632494 17.06863475 -0.91924632 19.0342854 -1 21 C-1.33 21 -1.66 21 -2 21 C-2 15.72 -2 10.44 -2 5 C-2.99 5.33 -3.98 5.66 -5 6 C-3.63016497 2.83884224 -3.0109362 2.0072908 0 0 Z " fill="#422F2F" transform="translate(8,1)"/>
<path d="M0 0 C2.0625 1.75 2.0625 1.75 4 4 C3.75 6.25 3.75 6.25 3 8 C2.01 8 1.02 8 0 8 C0.33 6.68 0.66 5.36 1 4 C-1.475 3.01 -1.475 3.01 -4 2 C-2.68 1.34 -1.36 0.68 0 0 Z " fill="#5D4949" transform="translate(24,3)"/>
</svg>
