<?xml version="1.0" encoding="UTF-8"?>
<svg version="1.1" xmlns="http://www.w3.org/2000/svg" width="33" height="33">
<path d="M0 0 C4.94353493 4.69635818 6.77579056 7.88485992 7.125 14.75 C6.95791648 20.37300316 5.82008014 23.62126912 2.203125 27.88671875 C-2.56619011 32.05440007 -7.23539559 31.79729414 -13.36328125 31.6875 C-18.82273985 31.14359379 -21.19482371 28.71452303 -24.875 24.9375 C-27.3725937 19.46200612 -27.34688497 14.28846632 -26.5 8.375 C-24.85637444 4.26943317 -22.41583544 2.06746094 -18.9375 -0.5625 C-12.55446112 -2.53543929 -6.1154197 -2.839302 0 0 Z " fill="#4E5458" transform="translate(26.5,1.625)"/>
<path d="M0 0 C5.09773623 0.04628295 7.92446052 0.81326447 11.8125 4.3125 C14.21560877 6.82406261 14.78640489 8.02440997 15.10546875 11.546875 C15.07066406 12.70703125 15.03585938 13.8671875 15 15.0625 C14.97292969 16.23296875 14.94585938 17.4034375 14.91796875 18.609375 C14.88316406 19.50140625 14.84835938 20.3934375 14.8125 21.3125 C12.8325 22.3025 12.8325 22.3025 10.8125 23.3125 C8.8325 21.6625 6.8525 20.0125 4.8125 18.3125 C5.6375 19.09625 6.4625 19.88 7.3125 20.6875 C9.8125 23.3125 9.8125 23.3125 9.8125 25.3125 C6.42888481 24.69521885 4.29247439 23.44270282 1.5625 21.375 C0.85609375 20.85035156 0.1496875 20.32570313 -0.578125 19.78515625 C-1.10921875 19.29917969 -1.6403125 18.81320313 -2.1875 18.3125 C-2.1875 17.6525 -2.1875 16.9925 -2.1875 16.3125 C-2.8475 16.3125 -3.5075 16.3125 -4.1875 16.3125 C-4.1875 19.2825 -4.1875 22.2525 -4.1875 25.3125 C-4.8475 25.3125 -5.5075 25.3125 -6.1875 25.3125 C-6.21636984 21.33334841 -6.23425406 17.35422347 -6.25 13.375 C-6.25837891 12.23869141 -6.26675781 11.10238281 -6.27539062 9.93164062 C-6.27861328 8.85205078 -6.28183594 7.77246094 -6.28515625 6.66015625 C-6.29039307 5.65992432 -6.29562988 4.65969238 -6.30102539 3.62915039 C-6.09107232 -0.65524685 -3.77969646 0.09691529 0 0 Z " fill="#525354" transform="translate(15.1875,0.6875)"/>
<path d="M0 0 C10.66224287 -0.62110153 10.66224287 -0.62110153 15.5 1.625 C20.44353493 6.32135818 22.27579056 9.50985992 22.625 16.375 C22.45791648 21.99800316 21.32008014 25.24626912 17.703125 29.51171875 C12.93380989 33.67940007 8.26460441 33.42229414 2.13671875 33.3125 C-3.32273985 32.76859379 -5.69482371 30.33952303 -9.375 26.5625 C-11.80357623 21.23831366 -11.85447968 15.76581331 -11 10 C-9.47265625 8.10546875 -9.47265625 8.10546875 -8 7 C-8.15726563 7.56976563 -8.31453125 8.13953125 -8.4765625 8.7265625 C-9.47501616 13.06312988 -10.2737383 17.89343282 -7.8828125 21.84765625 C-6.63919978 23.27745958 -5.32330254 24.64361489 -4 26 C-4 26.66 -4 27.32 -4 28 C2.03976862 29.71173166 7.85963839 30.10840155 13.5 27.1875 C16.47642563 24.58312757 17.8846453 23.01673097 18.3359375 19.0390625 C18.35527344 17.34910156 18.35527344 17.34910156 18.375 15.625 C18.41753906 13.94277344 18.41753906 13.94277344 18.4609375 12.2265625 C17.90259671 8.31817699 16.77877837 6.75927817 14 4 C10.99749918 2.01053808 8.30839424 1.65592586 4.75 1.375 C3.85796875 1.30023438 2.9659375 1.22546875 2.046875 1.1484375 C1.03367187 1.07496094 1.03367187 1.07496094 0 1 C0 0.67 0 0.34 0 0 Z " fill="#060606" transform="translate(11,0)"/>
<path d="M0 0 C0.33 0 0.66 0 1 0 C1.1953125 2.05078125 1.390625 4.1015625 1.5859375 6.15234375 C1.72257813 6.76207031 1.85921875 7.37179688 2 8 C2.66 8.33 3.32 8.66 4 9 C4 6.03 4 3.06 4 0 C4.66 0 5.32 0 6 0 C6 0.66 6 1.32 6 2 C6.8353125 2.37125 6.8353125 2.37125 7.6875 2.75 C10 4 10 4 12.5625 6.0625 C14.92026019 8.16384349 14.92026019 8.16384349 18 9 C17.21625 8.236875 16.4325 7.47375 15.625 6.6875 C13 4 13 4 11 1 C15.43458973 2.3937282 17.87378374 4.60582235 21 8 C16.02034467 12.33013507 12.9245409 13.54758613 6.33203125 13.37109375 C4 13 4 13 0 11 C0 7.37 0 3.74 0 0 Z " fill="#3D4244" transform="translate(7,17)"/>
<path d="M0 0 C0.66 0 1.32 0 2 0 C2 2.31 2 4.62 2 7 C2.68707031 6.48308594 3.37414062 5.96617188 4.08203125 5.43359375 C4.98308594 4.77488281 5.88414063 4.11617187 6.8125 3.4375 C8.15248047 2.44556641 8.15248047 2.44556641 9.51953125 1.43359375 C10.33808594 0.96050781 11.15664063 0.48742187 12 0 C12.99 0.33 13.98 0.66 15 1 C12.03 3.31 9.06 5.62 6 8 C7.95300563 11.90601126 8.72498396 12.79739045 12.125 15.125 C14.3203125 16.6328125 14.3203125 16.6328125 16 18 C16 18.66 16 19.32 16 20 C12.61638481 19.38271885 10.47997439 18.13020282 7.75 16.0625 C6.69039062 15.27552734 6.69039062 15.27552734 5.609375 14.47265625 C5.07828125 13.98667969 4.5471875 13.50070313 4 13 C4 12.34 4 11.68 4 11 C3.34 11 2.68 11 2 11 C2 13.97 2 16.94 2 20 C1.34 20 0.68 20 0 20 C0 13.4 0 6.8 0 0 Z " fill="#63C4F4" transform="translate(9,6)"/>
<path d="M0 0 C1.79158489 -0.02696365 3.58328473 -0.04637917 5.375 -0.0625 C6.37273438 -0.07410156 7.37046875 -0.08570312 8.3984375 -0.09765625 C11 0 11 0 13 1 C13.625 3.0625 13.625 3.0625 14 5 C13.113125 5.4125 12.22625 5.825 11.3125 6.25 C8.18702259 7.90119561 5.73948618 9.79319169 3 12 C2.34 12 1.68 12 1 12 C1 9.69 1 7.38 1 5 C0.34 4.67 -0.32 4.34 -1 4 C-0.67 2.68 -0.34 1.36 0 0 Z " fill="#5E6568" transform="translate(10,1)"/>
<path d="M0 0 C3.86933162 0.57323431 6.15222057 2.38953552 9 5 C9 5.66 9 6.32 9 7 C5.13066838 6.42676569 2.84777943 4.61046448 0 2 C0 1.34 0 0.68 0 0 Z " fill="#5DB5E0" transform="translate(16,19)"/>
<path d="M0 0 C0.66 0.33 1.32 0.66 2 1 C1.67 1.66 1.34 2.32 1 3 C1.66 3.33 2.32 3.66 3 4 C-0.465 5.485 -0.465 5.485 -4 7 C-4 5.68 -4 4.36 -4 3 C-2 1.25 -2 1.25 0 0 Z " fill="#3B3B3B" transform="translate(8,1)"/>
<path d="M0 0 C0.99 0.33 1.98 0.66 3 1 C0.36 2.98 -2.28 4.96 -5 7 C-5.66 6.34 -6.32 5.68 -7 5 C-5.90554162 4.13342884 -4.79902219 3.28207276 -3.6875 2.4375 C-3.07261719 1.96183594 -2.45773438 1.48617188 -1.82421875 0.99609375 C-1.22222656 0.66738281 -0.62023437 0.33867188 0 0 Z " fill="#61BBE8" transform="translate(21,6)"/>
</svg>
