<?xml version="1.0" encoding="UTF-8"?>
<svg version="1.1" xmlns="http://www.w3.org/2000/svg" width="33" height="33">
<path d="M0 0 C4.94353493 4.69635818 6.77579056 7.88485992 7.125 14.75 C6.95791648 20.37300316 5.82008014 23.62126912 2.203125 27.88671875 C-2.56619011 32.05440007 -7.23539559 31.79729414 -13.36328125 31.6875 C-18.82273985 31.14359379 -21.19482371 28.71452303 -24.875 24.9375 C-27.3725937 19.46200612 -27.34688497 14.28846632 -26.5 8.375 C-24.85637444 4.26943317 -22.41583544 2.06746094 -18.9375 -0.5625 C-12.55446112 -2.53543929 -6.1154197 -2.839302 0 0 Z " fill="#4B534F" transform="translate(26.5,1.625)"/>
<path d="M0 0 C10.66224287 -0.62110153 10.66224287 -0.62110153 15.5 1.625 C20.44353493 6.32135818 22.27579056 9.50985992 22.625 16.375 C22.45791648 21.99800316 21.32008014 25.24626912 17.703125 29.51171875 C12.93380989 33.67940007 8.26460441 33.42229414 2.13671875 33.3125 C-3.32273985 32.76859379 -5.69482371 30.33952303 -9.375 26.5625 C-11.80357623 21.23831366 -11.85447968 15.76581331 -11 10 C-9.47265625 8.10546875 -9.47265625 8.10546875 -8 7 C-8.15726563 7.56976563 -8.31453125 8.13953125 -8.4765625 8.7265625 C-9.47501616 13.06312988 -10.2737383 17.89343282 -7.8828125 21.84765625 C-6.63919978 23.27745958 -5.32330254 24.64361489 -4 26 C-4 26.66 -4 27.32 -4 28 C2.91724015 29.03821145 7.86605445 29.63029431 14 26 C16.88556552 23.71450688 17.89268214 22.61786679 18.53125 18.94140625 C18.5209375 17.82636719 18.510625 16.71132813 18.5 15.5625 C18.5103125 14.45003906 18.520625 13.33757813 18.53125 12.19140625 C17.89112311 8.34593808 16.73903908 6.73421683 14 4 C10.99749918 2.01053808 8.30839424 1.65592586 4.75 1.375 C3.85796875 1.30023438 2.9659375 1.22546875 2.046875 1.1484375 C1.03367187 1.07496094 1.03367187 1.07496094 0 1 C0 0.67 0 0.34 0 0 Z " fill="#080808" transform="translate(11,0)"/>
<path d="M0 0 C2.375 1 2.375 1 4 2 C4 2.99 4 3.98 4 5 C3.01 4.67 2.02 4.34 1 4 C-0.39439664 3.93334624 -1.79169875 3.91461801 -3.1875 3.9375 C-4.445625 3.958125 -5.70375 3.97875 -7 4 C-7 4.99 -7 5.98 -7 7 C-6.30132812 7.19335938 -5.60265625 7.38671875 -4.8828125 7.5859375 C-3.97273437 7.84632812 -3.06265625 8.10671875 -2.125 8.375 C-1.22007813 8.63023438 -0.31515625 8.88546875 0.6171875 9.1484375 C3 10 3 10 5 12 C5.375 14.9375 5.375 14.9375 5 18 C3.22846223 20.21442221 1.88828869 20.86894101 -0.90625 21.28125 C-4.33289395 21.43468182 -6.45642853 21.29896431 -9.5 19.625 C-11 18 -11 18 -11 16 C-10.2265625 16.2165625 -10.2265625 16.2165625 -9.4375 16.4375 C-3.61870018 18.05158107 -3.61870018 18.05158107 2 17 C2.65213292 14.97536745 2.65213292 14.97536745 3 13 C1.96939453 12.83564453 1.96939453 12.83564453 0.91796875 12.66796875 C0.01691406 12.50941406 -0.88414063 12.35085937 -1.8125 12.1875 C-2.70582031 12.03667969 -3.59914063 11.88585938 -4.51953125 11.73046875 C-7.21980812 10.9352691 -8.31092883 10.22101891 -10 8 C-10.4375 5.5 -10.4375 5.5 -10 3 C-7.01483053 -0.3296121 -4.31439824 -0.44941648 0 0 Z " fill="#38D692" transform="translate(19,5)"/>
<path d="M0 0 C0.66 0 1.32 0 2 0 C2.0825 0.598125 2.165 1.19625 2.25 1.8125 C3.20455872 4.5966296 4.57132271 5.43311142 7 7 C4.625 7.125 4.625 7.125 2 7 C0 5 0 5 -0.125 2.375 C-0.08375 1.59125 -0.0425 0.8075 0 0 Z " fill="#39E199" transform="translate(9,8)"/>
<path d="M0 0 C-0.99 1.485 -0.99 1.485 -2 3 C-4.64 2.34 -7.28 1.68 -10 1 C-6.42181037 -1.33958553 -4.07775191 -0.9267618 0 0 Z " fill="#38CD8D" transform="translate(22,15)"/>
</svg>
