<?xml version="1.0" encoding="UTF-8"?>
<svg version="1.1" xmlns="http://www.w3.org/2000/svg" width="36" height="36">
<path d="M0 0 C0.86625 0.0103125 1.7325 0.020625 2.625 0.03125 C3.924375 0.01578125 3.924375 0.01578125 5.25 0 C7.625 0.53125 7.625 0.53125 9.45703125 2.328125 C11.17887144 5.57601085 10.3650051 8.03304409 9.625 11.53125 C10.285 11.20125 10.945 10.87125 11.625 10.53125 C17.00531899 10.07335051 17.00531899 10.07335051 19.30078125 11.76953125 C20.987588 14.01363108 20.96646906 15.18351725 20.875 17.96875 C20.83632812 19.27779297 20.83632812 19.27779297 20.796875 20.61328125 C20.50342035 25.59534094 20.10298252 30.5636459 19.625 35.53125 C18.85414062 35.51964844 18.08328125 35.50804687 17.2890625 35.49609375 C16.28617188 35.48707031 15.28328125 35.47804687 14.25 35.46875 C12.75339844 35.45134766 12.75339844 35.45134766 11.2265625 35.43359375 C8.64067547 35.35118398 8.64067547 35.35118398 6.625 36.53125 C-0.84166667 36.88680556 -0.84166667 36.88680556 -4.375 34.53125 C-5.70887573 31.30771698 -5.20590317 28.85486268 -4.375 25.53125 C-5.00148438 25.55445312 -5.62796875 25.57765625 -6.2734375 25.6015625 C-7.49933594 25.62863281 -7.49933594 25.62863281 -8.75 25.65625 C-9.96816406 25.69105469 -9.96816406 25.69105469 -11.2109375 25.7265625 C-13.375 25.53125 -13.375 25.53125 -15.375 23.53125 C-15.67578125 21.25390625 -15.67578125 21.25390625 -15.6875 18.59375 C-15.70425781 17.71847656 -15.72101562 16.84320312 -15.73828125 15.94140625 C-15.375 13.53125 -15.375 13.53125 -14.1171875 11.6953125 C-10.9562684 9.58330826 -7.97056534 10.88286937 -4.375 11.53125 C-4.7153125 9.9225 -4.7153125 9.9225 -5.0625 8.28125 C-5.375 4.53125 -5.375 4.53125 -4.20703125 2.328125 C-2.375 0.53125 -2.375 0.53125 0 0 Z " fill="#1B1A1A" transform="translate(15.375,-0.53125)"/>
<path d="M0 0 C0.86625 0.0103125 1.7325 0.020625 2.625 0.03125 C3.924375 0.01578125 3.924375 0.01578125 5.25 0 C7.625 0.53125 7.625 0.53125 9.45703125 2.328125 C11.17887144 5.57601085 10.3650051 8.03304409 9.625 11.53125 C10.285 11.20125 10.945 10.87125 11.625 10.53125 C17.00531899 10.07335051 17.00531899 10.07335051 19.30078125 11.76953125 C20.987588 14.01363108 20.96646906 15.18351725 20.875 17.96875 C20.83632812 19.27779297 20.83632812 19.27779297 20.796875 20.61328125 C20.50342035 25.59534094 20.10298252 30.5636459 19.625 35.53125 C17.315 35.53125 15.005 35.53125 12.625 35.53125 C12.625 35.20125 12.625 34.87125 12.625 34.53125 C14.605 34.53125 16.585 34.53125 18.625 34.53125 C18.295 27.27125 17.965 20.01125 17.625 12.53125 C14.325 12.53125 11.025 12.53125 7.625 12.53125 C7.295 9.56125 6.965 6.59125 6.625 3.53125 C3.655 3.53125 0.685 3.53125 -2.375 3.53125 C-2.96668863 8.66141014 -2.96668863 8.66141014 -1.26171875 13.328125 C-0.00211418 14.76159048 1.30896391 16.14941211 2.625 17.53125 C2.625 18.19125 2.625 18.85125 2.625 19.53125 C1.965 19.53125 1.305 19.53125 0.625 19.53125 C-0.72886936 17.88122172 -2.06178142 16.2138113 -3.375 14.53125 C-6.33164519 13.0529274 -9.11729737 13.47092217 -12.375 13.53125 C-12.375 16.50125 -12.375 19.47125 -12.375 22.53125 C-9.075 22.86125 -5.775 23.19125 -2.375 23.53125 C-2.40755208 25.84244792 -2.44010417 28.15364583 -2.47265625 30.46484375 C-2.60767348 32.52288938 -2.60767348 32.52288938 -1.375 33.53125 C3.80235677 33.90177339 3.80235677 33.90177339 8.625 32.53125 C9.285 33.19125 9.945 33.85125 10.625 34.53125 C6.69678453 37.15006031 3.19056861 36.82112737 -1.375 36.53125 C-4.375 34.53125 -4.375 34.53125 -5.125 32.71875 C-5.42154743 30.12396 -5.00534051 28.05261205 -4.375 25.53125 C-5.00148438 25.55445312 -5.62796875 25.57765625 -6.2734375 25.6015625 C-7.49933594 25.62863281 -7.49933594 25.62863281 -8.75 25.65625 C-9.96816406 25.69105469 -9.96816406 25.69105469 -11.2109375 25.7265625 C-13.375 25.53125 -13.375 25.53125 -15.375 23.53125 C-15.67578125 21.25390625 -15.67578125 21.25390625 -15.6875 18.59375 C-15.70425781 17.71847656 -15.72101562 16.84320312 -15.73828125 15.94140625 C-15.375 13.53125 -15.375 13.53125 -14.1171875 11.6953125 C-10.9562684 9.58330826 -7.97056534 10.88286937 -4.375 11.53125 C-4.7153125 9.9225 -4.7153125 9.9225 -5.0625 8.28125 C-5.375 4.53125 -5.375 4.53125 -4.20703125 2.328125 C-2.375 0.53125 -2.375 0.53125 0 0 Z " fill="#070707" transform="translate(15.375,-0.53125)"/>
<path d="M0 0 C2.92242884 0.30232023 3.92310971 0.92070688 6 3.0625 C8.01472954 5.46386348 8.01472954 5.46386348 12 5 C12 8.3 12 11.6 12 15 C5.9453125 15.1953125 5.9453125 15.1953125 4 15 C3.34 14.34 2.68 13.68 2 13 C2 12.01 2 11.02 2 10 C-0.43750025 7.31232422 -0.43750025 7.31232422 -3 5 C-1.125 1.125 -1.125 1.125 0 0 Z " fill="#FEA10A" transform="translate(22,19)"/>
<path d="M0 0 C1.32 0.33 2.64 0.66 4 1 C4.061875 1.53625 4.12375 2.0725 4.1875 2.625 C5.38027382 6.11156962 7.56197166 8.24940393 10 11 C7.39791402 13.60208598 5.45560962 14.24088781 1.875 14.3125 C-2 14 -2 14 -4 12 C-4.48602588 7.70677141 -4.46241608 5.67917361 -2 2.0625 C-1.34 1.381875 -0.68 0.70125 0 0 Z " fill="#191919" transform="translate(16,20)"/>
<path d="M0 0 C2.01822917 0.06510417 4.03645833 0.13020833 6.0546875 0.1953125 C7.31706481 2.72006712 7.15325154 4.50731716 7.1171875 7.3203125 C7.10816406 8.23039062 7.09914063 9.14046875 7.08984375 10.078125 C7.07824219 10.77679688 7.06664062 11.47546875 7.0546875 12.1953125 C5.28125 12.875 5.28125 12.875 3.0546875 13.1953125 C1.203125 12.015625 1.203125 12.015625 -0.5703125 10.3203125 C-3.05162519 7.96600821 -3.05162519 7.96600821 -5.9453125 6.1953125 C-3.20430126 0.32171699 -3.20430126 0.32171699 0 0 Z " fill="#1D1D1D" transform="translate(26.9453125,11.8046875)"/>
<path d="M0 0 C1.134375 0.020625 2.26875 0.04125 3.4375 0.0625 C4.9158226 3.01914519 4.49782783 5.80479737 4.4375 9.0625 C5.7575 8.0725 7.0775 7.0825 8.4375 6.0625 C6.5625 9.9375 6.5625 9.9375 5.4375 11.0625 C3.94011876 11.1604057 2.43807108 11.19224864 0.9375 11.1875 C0.1228125 11.19007812 -0.691875 11.19265625 -1.53125 11.1953125 C-3.5625 11.0625 -3.5625 11.0625 -4.5625 10.0625 C-4.6604057 8.56511876 -4.69224864 7.06307108 -4.6875 5.5625 C-4.69007812 4.7478125 -4.69265625 3.933125 -4.6953125 3.09375 C-4.46207125 -0.47346908 -3.71748256 0.06521899 0 0 Z " fill="#454444" transform="translate(6.5625,11.9375)"/>
<path d="M0 0 C0.8146875 0.00257812 1.629375 0.00515625 2.46875 0.0078125 C3.2834375 0.00523438 4.098125 0.00265625 4.9375 0 C6.96875 0.1328125 6.96875 0.1328125 7.96875 1.1328125 C8.171875 3.12890625 8.171875 3.12890625 8.21875 5.5703125 C8.25742187 6.77494141 8.25742187 6.77494141 8.296875 8.00390625 C8.18859375 8.70644531 8.0803125 9.40898437 7.96875 10.1328125 C6.97875 10.7928125 5.98875 11.4528125 4.96875 12.1328125 C5.29875 10.8128125 5.62875 9.4928125 5.96875 8.1328125 C1.51375 8.6278125 1.51375 8.6278125 -3.03125 9.1328125 C-3.12890625 2.98046875 -3.12890625 2.98046875 -3.03125 1.1328125 C-2.03125 0.1328125 -2.03125 0.1328125 0 0 Z " fill="#4C4C4C" transform="translate(15.03125,1.8671875)"/>
<path d="M0 0 C2.91387197 0.2913872 3.82565583 0.79452294 5.75 3.0625 C6.36875 4.0215625 6.36875 4.0215625 7 5 C6.01 6.98 5.02 8.96 4 11 C1.69 9.02 -0.62 7.04 -3 5 C-1 1 -1 1 0 0 Z " fill="#D38137" transform="translate(22,19)"/>
<path d="M0 0 C-0.66 1.98 -1.32 3.96 -2 6 C-4.375 5.6875 -4.375 5.6875 -7 5 C-7.66 4.01 -8.32 3.02 -9 2 C-5.5647952 -0.29013653 -4.014669 -0.17842973 0 0 Z " fill="#2E2D2D" transform="translate(22,9)"/>
<path d="M0 0 C1.670625 0.061875 1.670625 0.061875 3.375 0.125 C3.375 0.785 3.375 1.445 3.375 2.125 C1.395 2.125 -0.585 2.125 -2.625 2.125 C-2.625 3.775 -2.625 5.425 -2.625 7.125 C-4.275 6.795 -5.925 6.465 -7.625 6.125 C-4.84462617 0.16705607 -4.84462617 0.16705607 0 0 Z " fill="#5F5E5E" transform="translate(28.625,11.875)"/>
<path d="M0 0 C1.65 0 3.3 0 5 0 C5 3.3 5 6.6 5 10 C-1.0546875 10.1953125 -1.0546875 10.1953125 -3 10 C-3.66 9.34 -4.32 8.68 -5 8 C-4.01 7.34 -3.02 6.68 -2 6 C-2 6.66 -2 7.32 -2 8 C0.97 8.495 0.97 8.495 4 9 C4 6.69 4 4.38 4 2 C2.68 2 1.36 2 0 2 C0 1.34 0 0.68 0 0 Z " fill="#A59457" transform="translate(29,24)"/>
<path d="M0 0 C1.32 0.33 2.64 0.66 4 1 C3.67 2.32 3.34 3.64 3 5 C1.35 5 -0.3 5 -2 5 C-2.33 6.98 -2.66 8.96 -3 11 C-3.33 11 -3.66 11 -4 11 C-4.36630156 7.06225823 -4.30233203 5.43460229 -2 2.125 C-1.34 1.42375 -0.68 0.7225 0 0 Z " fill="#575656" transform="translate(16,20)"/>
<path d="M0 0 C1.65 1.32 3.3 2.64 5 4 C3.62308038 6.75383923 1.63279958 7.51483101 -1 9 C-1.09765625 2.84765625 -1.09765625 2.84765625 -1 1 C-0.67 0.67 -0.34 0.34 0 0 Z " fill="#2C2C2C" transform="translate(11,13)"/>
<path d="M0 0 C-0.33 2.97 -0.66 5.94 -1 9 C-1.33 9 -1.66 9 -2 9 C-2.33 6.36 -2.66 3.72 -3 1 C-5.31 0.67 -7.62 0.34 -10 0 C-10 -0.33 -10 -0.66 -10 -1 C-3.375 -2.25 -3.375 -2.25 0 0 Z " fill="#1D1C1C" transform="translate(25,2)"/>
<path d="M0 0 C1.32 1.32 2.64 2.64 4 4 C1.44931155 6.35448165 0.28982642 6.98327924 -3.25 7.1875 C-4.1575 7.125625 -5.065 7.06375 -6 7 C-6 6.67 -6 6.34 -6 6 C-4.35 5.67 -2.7 5.34 -1 5 C-0.67 3.35 -0.34 1.7 0 0 Z " fill="#3F3F3E" transform="translate(22,27)"/>
<path d="M0 0 C1.32 0.66 2.64 1.32 4 2 C3.67 2.99 3.34 3.98 3 5 C1.68 4.67 0.36 4.34 -1 4 C-0.67 2.68 -0.34 1.36 0 0 Z " fill="#EA5301" transform="translate(22,20)"/>
<path d="M0 0 C0.33 0 0.66 0 1 0 C1 2.64 1 5.28 1 8 C-0.32 8.33 -1.64 8.66 -3 9 C-3.33 8.01 -3.66 7.02 -4 6 C-2.68 6 -1.36 6 0 6 C0 4.02 0 2.04 0 0 Z " fill="#3E3E3D" transform="translate(33,16)"/>
</svg>
