<?xml version="1.0" encoding="UTF-8"?>
<svg version="1.1" xmlns="http://www.w3.org/2000/svg" width="36" height="36">
<path d="M0 0 C0.86625 0.0103125 1.7325 0.020625 2.625 0.03125 C3.924375 0.01578125 3.924375 0.01578125 5.25 0 C7.625 0.53125 7.625 0.53125 9.45703125 2.328125 C11.17887144 5.57601085 10.3650051 8.03304409 9.625 11.53125 C10.285 11.20125 10.945 10.87125 11.625 10.53125 C16.9886082 10.07477271 16.9886082 10.07477271 19.296875 11.73046875 C21.05919072 14.11996153 20.99384084 15.65102447 20.9375 18.59375 C20.93363281 19.47160156 20.92976563 20.34945313 20.92578125 21.25390625 C20.625 23.53125 20.625 23.53125 18.625 25.53125 C16.4609375 25.7265625 16.4609375 25.7265625 14 25.65625 C13.18273437 25.63820313 12.36546875 25.62015625 11.5234375 25.6015625 C10.89695312 25.57835938 10.27046875 25.55515625 9.625 25.53125 C9.8725 26.60375 10.12 27.67625 10.375 28.78125 C10.625 32.53125 10.625 32.53125 9.1875 34.96875 C5.41660809 37.26807434 3.01539697 36.94938304 -1.375 36.53125 C-4.375 34.53125 -4.375 34.53125 -5.125 32.71875 C-5.42154743 30.12396 -5.00534051 28.05261205 -4.375 25.53125 C-5.00148438 25.55445312 -5.62796875 25.57765625 -6.2734375 25.6015625 C-7.49933594 25.62863281 -7.49933594 25.62863281 -8.75 25.65625 C-9.96816406 25.69105469 -9.96816406 25.69105469 -11.2109375 25.7265625 C-13.375 25.53125 -13.375 25.53125 -15.375 23.53125 C-15.67578125 21.25390625 -15.67578125 21.25390625 -15.6875 18.59375 C-15.70425781 17.71847656 -15.72101562 16.84320312 -15.73828125 15.94140625 C-15.375 13.53125 -15.375 13.53125 -14.1171875 11.6953125 C-10.9562684 9.58330826 -7.97056534 10.88286937 -4.375 11.53125 C-4.7153125 9.9225 -4.7153125 9.9225 -5.0625 8.28125 C-5.375 4.53125 -5.375 4.53125 -4.20703125 2.328125 C-2.375 0.53125 -2.375 0.53125 0 0 Z " fill="#090909" transform="translate(15.375,-0.53125)"/>
<path d="M0 0 C2.26206816 1.60533869 4.11046114 3.28695559 5.9375 5.375 C5.9375 6.035 5.9375 6.695 5.9375 7.375 C5.2775 7.375 4.6175 7.375 3.9375 7.375 C3.6075 9.025 3.2775 10.675 2.9375 12.375 C3.9275 11.715 4.9175 11.055 5.9375 10.375 C8.26949388 10.29594936 10.60582622 10.28701231 12.9375 10.375 C12.9375 11.035 12.9375 11.695 12.9375 12.375 C10.9575 12.375 8.9775 12.375 6.9375 12.375 C6.958125 13.32375 6.97875 14.2725 7 15.25 C6.9375 18.375 6.9375 18.375 5.9375 20.375 C5.40125 20.045 4.865 19.715 4.3125 19.375 C1.30815456 18.11001245 -0.83017442 18.03113558 -4.0625 18.375 C-4.52269531 18.87128906 -4.98289062 19.36757813 -5.45703125 19.87890625 C-7.59186083 21.86829732 -8.81861916 21.71844889 -11.6875 21.625 C-12.88246094 21.60179687 -12.88246094 21.60179687 -14.1015625 21.578125 C-16.0625 21.375 -16.0625 21.375 -17.0625 20.375 C-17.1604057 18.87761876 -17.19224864 17.37557108 -17.1875 15.875 C-17.19007812 15.0603125 -17.19265625 14.245625 -17.1953125 13.40625 C-17.0625 11.375 -17.0625 11.375 -16.0625 10.375 C-9.60096154 10.01602564 -9.60096154 10.01602564 -6.0625 12.375 C-5.7325 11.385 -5.4025 10.395 -5.0625 9.375 C-5.7225 9.375 -6.3825 9.375 -7.0625 9.375 C-7.0625 6.735 -7.0625 4.095 -7.0625 1.375 C-2.68514151 -0.81367925 -2.68514151 -0.81367925 0 0 Z " fill="#40403F" transform="translate(19.0625,1.625)"/>
<path d="M0 0 C2.96175123 0.61277612 4.38058783 1.25372522 7 3 C7.58203125 5.09375 7.58203125 5.09375 7.8125 7.5 C7.94591797 8.69109375 7.94591797 8.69109375 8.08203125 9.90625 C8 12 8 12 6 14 C4.125 14.265625 4.125 14.265625 2 14.25 C1.29875 14.25515625 0.5975 14.2603125 -0.125 14.265625 C-2 14 -2 14 -4 12 C-4.48602588 7.70677141 -4.46241608 5.67917361 -2 2.0625 C-1.34 1.381875 -0.68 0.70125 0 0 Z " fill="#202020" transform="translate(16,20)"/>
<path d="M0 0 C2.36779595 1.81531023 3.49586032 3.8171346 4.875 6.4375 C3.885 6.4375 2.895 6.4375 1.875 6.4375 C1.875 9.7375 1.875 13.0375 1.875 16.4375 C-0.105 16.4375 -2.085 16.4375 -4.125 16.4375 C-4.125 13.1375 -4.125 9.8375 -4.125 6.4375 C-5.115 6.4375 -6.105 6.4375 -7.125 6.4375 C-7.125 4.7875 -7.125 3.1375 -7.125 1.4375 C-2.77884615 -0.73557692 -2.77884615 -0.73557692 0 0 Z " fill="#D4913A" transform="translate(19.125,1.5625)"/>
<path d="M0 0 C2 2 2 2 2.1953125 4.1640625 C2.17210937 4.97617187 2.14890625 5.78828125 2.125 6.625 C2.10695313 7.44226563 2.08890625 8.25953125 2.0703125 9.1015625 C2.03550781 10.04128906 2.03550781 10.04128906 2 11 C-3.41538462 12.23076923 -3.41538462 12.23076923 -6.375 11.0625 C-6.91125 10.711875 -7.4475 10.36125 -8 10 C-7.34 7.36 -6.68 4.72 -6 2 C-4.02 2 -2.04 2 0 2 C0 1.34 0 0.68 0 0 Z " fill="#252525" transform="translate(32,12)"/>
<path d="M0 0 C0.33 0.66 0.66 1.32 1 2 C0.34 2 -0.32 2 -1 2 C-1.33 3.65 -1.66 5.3 -2 7 C-1.01 6.34 -0.02 5.68 1 5 C3.33199388 4.92094936 5.66832622 4.91201231 8 5 C8 5.66 8 6.32 8 7 C6.02 7 4.04 7 2 7 C2.020625 7.94875 2.04125 8.8975 2.0625 9.875 C2 13 2 13 1 15 C0.34 15 -0.32 15 -1 15 C-0.67 13.02 -0.34 11.04 0 9 C-0.66 9 -1.32 9 -2 9 C-2.33 9.66 -2.66 10.32 -3 11 C-3 7.7 -3 4.4 -3 1 C-2.01 0.67 -1.02 0.34 0 0 Z " fill="#5C5B55" transform="translate(24,7)"/>
<path d="M0 0 C1.875 0.25 1.875 0.25 4 1 C5.25 3.0625 5.25 3.0625 6 5 C3.69 5.33 1.38 5.66 -1 6 C-1.66 7.65 -2.32 9.3 -3 11 C-3.33 11 -3.66 11 -4 11 C-4.36630156 7.06225823 -4.30233203 5.43460229 -2 2.125 C-1.34 1.42375 -0.68 0.7225 0 0 Z " fill="#515151" transform="translate(16,20)"/>
<path d="M0 0 C1.6026782 -0.10824843 3.20745748 -0.18570645 4.8125 -0.25 C5.70582031 -0.29640625 6.59914063 -0.3428125 7.51953125 -0.390625 C10 -0 10 -0 11.8125 1.84375 C13.22793341 4.41387909 13.24092873 6.10885518 13 9 C12.67 8.34 12.34 7.68 12 7 C11.01 6.67 10.02 6.34 9 6 C7.3125 3.9375 7.3125 3.9375 6 2 C3.69 2.33 1.38 2.66 -1 3 C-0.67 2.01 -0.34 1.02 0 0 Z " fill="#161614" transform="translate(13,0)"/>
<path d="M0 0 C1.32 0 2.64 0 4 0 C4 3.3 4 6.6 4 10 C2.68 10 1.36 10 0 10 C0 6.7 0 3.4 0 0 Z " fill="#DE3E00" transform="translate(16,7)"/>
<path d="M0 0 C0 2.97 0 5.94 0 9 C1.98 9.99 3.96 10.98 6 12 C6 12.33 6 12.66 6 13 C3.69 12.67 1.38 12.34 -1 12 C-2.83691257 8.21812119 -3.15837626 6.05431692 -2 2 C-4.31 2 -6.62 2 -9 2 C-9 1.67 -9 1.34 -9 1 C-2.25 0 -2.25 0 0 0 Z " fill="#010101" transform="translate(13,23)"/>
<path d="M0 0 C0.33 0 0.66 0 1 0 C1 2.97 1 5.94 1 9 C1.66 9 2.32 9 3 9 C2.67 10.32 2.34 11.64 2 13 C-0.31 12.01 -2.62 11.02 -5 10 C-5 9.34 -5 8.68 -5 8 C-2.525 8.495 -2.525 8.495 0 9 C-0.185625 7.88625 -0.37125 6.7725 -0.5625 5.625 C-1 2 -1 2 0 0 Z " fill="#060505" transform="translate(11,2)"/>
<path d="M0 0 C3 0.4375 3 0.4375 4.875 2.4375 C5.431875 3.4275 5.431875 3.4275 6 4.4375 C3.07120629 3.80990135 0.63904371 2.85127341 -2 1.4375 C-2.66 2.7575 -3.32 4.0775 -4 5.4375 C-4.66 4.7775 -5.32 4.1175 -6 3.4375 C-4.10442866 0.91007155 -3.19410622 0.46580716 0 0 Z " fill="#100F0F" transform="translate(18,18.5625)"/>
<path d="M0 0 C1.32 0 2.64 0 4 0 C4 1.65 4 3.3 4 5 C2.68 5 1.36 5 0 5 C0 3.35 0 1.7 0 0 Z " fill="#FB7800" transform="translate(16,7)"/>
<path d="M0 0 C0.66 0 1.32 0 2 0 C1.67 1.65 1.34 3.3 1 5 C-1.64 4.34 -4.28 3.68 -7 3 C-7 2.67 -7 2.34 -7 2 C-4.69 2 -2.38 2 0 2 C0 1.34 0 0.68 0 0 Z " fill="#43403D" transform="translate(22,16)"/>
</svg>
