<?xml version="1.0" encoding="UTF-8"?>
<svg version="1.1" xmlns="http://www.w3.org/2000/svg" width="36" height="36">
<path d="M0 0 C0.86625 0.0103125 1.7325 0.020625 2.625 0.03125 C3.924375 0.01578125 3.924375 0.01578125 5.25 0 C7.625 0.53125 7.625 0.53125 9.45703125 2.328125 C11.17887144 5.57601085 10.3650051 8.03304409 9.625 11.53125 C10.285 11.20125 10.945 10.87125 11.625 10.53125 C16.9886082 10.07477271 16.9886082 10.07477271 19.296875 11.73046875 C21.05919072 14.11996153 20.99384084 15.65102447 20.9375 18.59375 C20.93363281 19.47160156 20.92976563 20.34945313 20.92578125 21.25390625 C20.625 23.53125 20.625 23.53125 18.625 25.53125 C16.4609375 25.7265625 16.4609375 25.7265625 14 25.65625 C13.18273437 25.63820313 12.36546875 25.62015625 11.5234375 25.6015625 C10.89695312 25.57835938 10.27046875 25.55515625 9.625 25.53125 C9.8725 26.60375 10.12 27.67625 10.375 28.78125 C10.625 32.53125 10.625 32.53125 9.1875 34.96875 C4.23102154 37.99099297 -0.99119017 36.60801197 -6.375 35.53125 C-9.04815692 35.44598984 -11.69935381 35.48590006 -14.375 35.53125 C-14.36339844 34.74878906 -14.35179687 33.96632812 -14.33984375 33.16015625 C-14.33082031 32.14824219 -14.32179688 31.13632812 -14.3125 30.09375 C-14.30089844 29.08441406 -14.28929687 28.07507813 -14.27734375 27.03515625 C-14.08887324 24.59103933 -14.08887324 24.59103933 -15.375 23.53125 C-15.578125 21.3515625 -15.578125 21.3515625 -15.625 18.65625 C-15.65078125 17.77195312 -15.6765625 16.88765625 -15.703125 15.9765625 C-15.375 13.53125 -15.375 13.53125 -14.12109375 11.69140625 C-10.95418313 9.58721732 -7.97261527 10.88249971 -4.375 11.53125 C-4.7153125 9.9225 -4.7153125 9.9225 -5.0625 8.28125 C-5.375 4.53125 -5.375 4.53125 -4.20703125 2.328125 C-2.375 0.53125 -2.375 0.53125 0 0 Z " fill="#050404" transform="translate(15.375,-0.53125)"/>
<path d="M0 0 C4.89165814 0.4811467 6.63332387 1.6530377 9.8125 5.375 C10.61633424 8.22286988 10.61084011 10.52624682 9.8125 13.375 C7.3125 16.375 7.3125 16.375 4.8125 18.375 C5.1425 19.365 5.4725 20.355 5.8125 21.375 C2.72361478 23.43425681 2.10314073 23.6140374 -1.375 23.5 C-2.633125 23.45875 -3.89125 23.4175 -5.1875 23.375 C-5.1875 20.075 -5.1875 16.775 -5.1875 13.375 C-3.5375 13.045 -1.8875 12.715 -0.1875 12.375 C-1.5075 11.715 -2.8275 11.055 -4.1875 10.375 C-4.21439216 8.89593108 -4.23384621 7.41672517 -4.25 5.9375 C-4.26160156 5.11378906 -4.27320313 4.29007813 -4.28515625 3.44140625 C-4.12471151 0.04639561 -3.47309212 0.40859907 0 0 Z " fill="#454544" transform="translate(6.1875,11.625)"/>
<path d="M0 0 C0.8146875 0.00257812 1.629375 0.00515625 2.46875 0.0078125 C3.2834375 0.00523438 4.098125 0.00265625 4.9375 0 C6.96875 0.1328125 6.96875 0.1328125 7.96875 1.1328125 C8.11068337 4.13612268 8.01111378 7.12498384 7.96875 10.1328125 C10.93875 10.1328125 13.90875 10.1328125 16.96875 10.1328125 C16.96875 10.7928125 16.96875 11.4528125 16.96875 12.1328125 C14.98875 12.1328125 13.00875 12.1328125 10.96875 12.1328125 C10.989375 13.0815625 11.01 14.0303125 11.03125 15.0078125 C10.96875 18.1328125 10.96875 18.1328125 9.96875 20.1328125 C8.03125 19.3828125 8.03125 19.3828125 5.96875 18.1328125 C5.824375 17.4728125 5.68 16.8128125 5.53125 16.1328125 C5.345625 15.4728125 5.16 14.8128125 4.96875 14.1328125 C2.57806266 13.02644855 2.57806266 13.02644855 -0.03125 12.1328125 C-1.84375 11.0078125 -1.84375 11.0078125 -3.03125 9.1328125 C-3.33676539 6.37761913 -3.21148599 3.92647037 -3.03125 1.1328125 C-2.03125 0.1328125 -2.03125 0.1328125 0 0 Z " fill="#4C4C4C" transform="translate(15.03125,1.8671875)"/>
<path d="M0 0 C3.37462715 0.54723683 5.08235 1.0549 8 3 C8.58203125 5.09375 8.58203125 5.09375 8.8125 7.5 C8.94591797 8.69109375 8.94591797 8.69109375 9.08203125 9.90625 C9 12 9 12 7 14 C-0.13669065 14.69064748 -0.13669065 14.69064748 -3.5 12 C-3.995 11.34 -4.49 10.68 -5 10 C-4.175 9.278125 -3.35 8.55625 -2.5 7.8125 C0.24407806 5.27082634 0.24407806 5.27082634 0.3125 2.1875 C0.209375 1.465625 0.10625 0.74375 0 0 Z " fill="#262524" transform="translate(15,20)"/>
<path d="M0 0 C1.32 0.33 2.64 0.66 4 1 C4.8125 3.1875 4.8125 3.1875 5 6 C2.5625 8.8125 2.5625 8.8125 0 11 C0.33 11.99 0.66 12.98 1 14 C-1.97 14 -4.94 14 -8 14 C-8 11.69 -8 9.38 -8 7 C-7.360625 6.896875 -6.72125 6.79375 -6.0625 6.6875 C-5.381875 6.460625 -4.70125 6.23375 -4 6 C-3.67 5.01 -3.34 4.02 -3 3 C-2.34 3 -1.68 3 -1 3 C-0.67 2.01 -0.34 1.02 0 0 Z " fill="#F59210" transform="translate(11,19)"/>
<path d="M0 0 C2 2 2 2 2.1953125 4.1640625 C2.17210937 4.97617187 2.14890625 5.78828125 2.125 6.625 C2.10695313 7.44226563 2.08890625 8.25953125 2.0703125 9.1015625 C2.03550781 10.04128906 2.03550781 10.04128906 2 11 C-3.41538462 12.23076923 -3.41538462 12.23076923 -6.375 11.0625 C-6.91125 10.711875 -7.4475 10.36125 -8 10 C-7.34 7.36 -6.68 4.72 -6 2 C-4.02 2 -2.04 2 0 2 C0 1.34 0 0.68 0 0 Z " fill="#252525" transform="translate(32,12)"/>
<path d="M0 0 C0 0.66 0 1.32 0 2 C-1.98 2 -3.96 2 -6 2 C-5.979375 2.94875 -5.95875 3.8975 -5.9375 4.875 C-6 8 -6 8 -7 10 C-8.9375 9.25 -8.9375 9.25 -11 8 C-11.75 5.875 -11.75 5.875 -12 4 C-7.99899414 0.12023674 -5.51903037 -0.43286513 0 0 Z " fill="#555454" transform="translate(32,12)"/>
<path d="M0 0 C0 0.99 0 1.98 0 3 C0.99 3.33 1.98 3.66 3 4 C1.375 5.625 1.375 5.625 -1 7 C-5.21995552 6.1560089 -6.57623483 5.63564775 -9 2 C-5.5647952 -0.29013653 -4.014669 -0.17842973 0 0 Z " fill="#2A2A2A" transform="translate(22,9)"/>
<path d="M0 0 C1.4540625 0.0309375 1.4540625 0.0309375 2.9375 0.0625 C2.6075 0.7225 2.2775 1.3825 1.9375 2.0625 C0.6175 2.0625 -0.7025 2.0625 -2.0625 2.0625 C-2.0625 4.3725 -2.0625 6.6825 -2.0625 9.0625 C0.2475 9.0625 2.5575 9.0625 4.9375 9.0625 C4.6075 9.7225 4.2775 10.3825 3.9375 11.0625 C1.2975 11.0625 -1.3425 11.0625 -4.0625 11.0625 C-4.08938151 9.41675434 -4.10884123 7.77088587 -4.125 6.125 C-4.13660156 5.20847656 -4.14820313 4.29195312 -4.16015625 3.34765625 C-4.00919455 -0.18484756 -3.60673121 0.07360676 0 0 Z " fill="#575137" transform="translate(5.0625,23.9375)"/>
<path d="M0 0 C0.99 0 1.98 0 3 0 C3.33 1.98 3.66 3.96 4 6 C4.66 6 5.32 6 6 6 C6.33 5.34 6.66 4.68 7 4 C7.99 5.485 7.99 5.485 9 7 C6.03 7 3.06 7 0 7 C0 4.69 0 2.38 0 0 Z " fill="#F2AF23" transform="translate(3,26)"/>
<path d="M0 0 C2.375 0.25 2.375 0.25 5 1 C6.3125 3.0625 6.3125 3.0625 7 5 C4.69 5.33 2.38 5.66 0 6 C0 4.02 0 2.04 0 0 Z " fill="#4D4B46" transform="translate(15,20)"/>
<path d="M0 0 C1.98 0.495 1.98 0.495 4 1 C4.33 2.65 4.66 4.3 5 6 C4.01 6.66 3.02 7.32 2 8 C0.4375 5.6875 0.4375 5.6875 -1 3 C-0.67 2.01 -0.34 1.02 0 0 Z " fill="#D76829" transform="translate(11,19)"/>
<path d="M0 0 C1.65 1.32 3.3 2.64 5 4 C4.67 4.99 4.34 5.98 4 7 C2.35 7 0.7 7 -1 7 C-1.04254356 5.00045254 -1.04080783 2.99958364 -1 1 C-0.67 0.67 -0.34 0.34 0 0 Z " fill="#323230" transform="translate(11,13)"/>
<path d="M0 0 C-0.33 2.97 -0.66 5.94 -1 9 C-1.33 9 -1.66 9 -2 9 C-2.33 6.36 -2.66 3.72 -3 1 C-5.31 0.67 -7.62 0.34 -10 0 C-10 -0.33 -10 -0.66 -10 -1 C-3.375 -2.25 -3.375 -2.25 0 0 Z " fill="#1D1C1C" transform="translate(25,2)"/>
<path d="M0 0 C0.33 0 0.66 0 1 0 C1.0825 1.11375 1.165 2.2275 1.25 3.375 C1.57873787 7.05753944 1.57873787 7.05753944 4.0625 8.4375 C4.701875 8.623125 5.34125 8.80875 6 9 C3 10 3 10 0.8125 9.0625 C0.214375 8.711875 -0.38375 8.36125 -1 8 C-0.67 5.36 -0.34 2.72 0 0 Z " fill="#1B1A19" transform="translate(1,15)"/>
<path d="M0 0 C1.485 0.99 1.485 0.99 3 2 C2.67 3.32 2.34 4.64 2 6 C1.34 6 0.68 6 0 6 C-0.38218767 4.34385343 -0.71395102 2.67542976 -1 1 C-0.67 0.67 -0.34 0.34 0 0 Z " fill="#F97305" transform="translate(10,22)"/>
</svg>
