<?xml version="1.0" encoding="UTF-8"?>
<svg version="1.1" xmlns="http://www.w3.org/2000/svg" width="36" height="36">
<path d="M0 0 C0.86625 0.0103125 1.7325 0.020625 2.625 0.03125 C3.924375 0.01578125 3.924375 0.01578125 5.25 0 C7.625 0.53125 7.625 0.53125 9.45703125 2.328125 C11.17887144 5.57601085 10.3650051 8.03304409 9.625 11.53125 C10.285 11.20125 10.945 10.87125 11.625 10.53125 C16.9886082 10.07477271 16.9886082 10.07477271 19.296875 11.73046875 C21.05919072 14.11996153 20.99384084 15.65102447 20.9375 18.59375 C20.93363281 19.47160156 20.92976563 20.34945313 20.92578125 21.25390625 C20.625 23.53125 20.625 23.53125 18.625 25.53125 C16.4609375 25.7265625 16.4609375 25.7265625 14 25.65625 C13.18273437 25.63820313 12.36546875 25.62015625 11.5234375 25.6015625 C10.89695312 25.57835938 10.27046875 25.55515625 9.625 25.53125 C9.8725 26.60375 10.12 27.67625 10.375 28.78125 C10.625 32.53125 10.625 32.53125 9.1875 34.96875 C5.41660809 37.26807434 3.01539697 36.94938304 -1.375 36.53125 C-4.375 34.53125 -4.375 34.53125 -5.125 32.71875 C-5.42154743 30.12396 -5.00534051 28.05261205 -4.375 25.53125 C-5.00148438 25.55445312 -5.62796875 25.57765625 -6.2734375 25.6015625 C-7.49933594 25.62863281 -7.49933594 25.62863281 -8.75 25.65625 C-9.96816406 25.69105469 -9.96816406 25.69105469 -11.2109375 25.7265625 C-13.375 25.53125 -13.375 25.53125 -15.375 23.53125 C-15.67578125 21.25390625 -15.67578125 21.25390625 -15.6875 18.59375 C-15.70425781 17.71847656 -15.72101562 16.84320312 -15.73828125 15.94140625 C-15.375 13.53125 -15.375 13.53125 -14.0859375 11.7265625 C-11.33578307 9.80522173 -8.61762609 10.34770513 -5.375 10.53125 C-5.436875 9.62375 -5.49875 8.71625 -5.5625 7.78125 C-5.32007903 3.57928657 -4.34671327 0.97229113 0 0 Z " fill="#202020" transform="translate(15.375,-0.53125)"/>
<path d="M0 0 C1.47906892 -0.02689216 2.95827483 -0.04634621 4.4375 -0.0625 C5.26121094 -0.07410156 6.08492187 -0.08570312 6.93359375 -0.09765625 C9 -0 9 -0 10 1 C10.14193337 4.00331018 10.04236378 6.99217134 10 10 C13.3 10 16.6 10 20 10 C21.20272819 12.40545638 21.10071472 13.94996953 21.0625 16.625 C21.05347656 17.44226563 21.04445312 18.25953125 21.03515625 19.1015625 C21.02355469 19.72804688 21.01195312 20.35453125 21 21 C16.60309316 22.02253647 14.01127186 22.16825506 10 20 C8.1875 18.375 8.1875 18.375 7 17 C5.68 18.65 4.36 20.3 3 22 C2.34 21.67 1.68 21.34 1 21 C1.33 20.34 1.66 19.68 2 19 C0.02 19 -1.96 19 -4 19 C-4 19.99 -4 20.98 -4 22 C-4.66 22 -5.32 22 -6 22 C-6 21.34 -6 20.68 -6 20 C-6.61875 19.731875 -7.2375 19.46375 -7.875 19.1875 C-10 18 -10 18 -12 15 C-11.125 12.3125 -11.125 12.3125 -10 10 C-8.02 10 -6.04 10 -4 10 C-4 10.66 -4 11.32 -4 12 C-2.35 11.67 -0.7 11.34 1 11 C0.649375 9.9275 0.29875 8.855 -0.0625 7.75 C-0.94680186 4.21279257 -1.02880551 3.25188876 0 0 Z " fill="#2E2D2D" transform="translate(13,2)"/>
<path d="M0 0 C1.32644531 -0.05607422 1.32644531 -0.05607422 2.6796875 -0.11328125 C5.125 0.3125 5.125 0.3125 6.96484375 2.09765625 C8.67068594 5.35426406 7.86548859 7.81200848 7.125 11.3125 C7.785 10.9825 8.445 10.6525 9.125 10.3125 C14.4886082 9.85602271 14.4886082 9.85602271 16.796875 11.51171875 C18.55919072 13.90121153 18.49384084 15.43227447 18.4375 18.375 C18.43363281 19.25285156 18.42976563 20.13070313 18.42578125 21.03515625 C18.125 23.3125 18.125 23.3125 16.125 25.3125 C13.9609375 25.5078125 13.9609375 25.5078125 11.5 25.4375 C10.68273437 25.41945313 9.86546875 25.40140625 9.0234375 25.3828125 C8.39695312 25.35960938 7.77046875 25.33640625 7.125 25.3125 C7.3725 26.385 7.62 27.4575 7.875 28.5625 C8.125 32.3125 8.125 32.3125 6.6875 34.75 C2.91660809 37.04932434 0.51539697 36.73063304 -3.875 36.3125 C-6.875 34.3125 -6.875 34.3125 -7.625 32.5625 C-7.94681166 29.66619502 -7.45624917 27.15416259 -6.875 24.3125 C-6.545 24.3125 -6.215 24.3125 -5.875 24.3125 C-5.64713542 26.36328125 -5.41927083 28.4140625 -5.19140625 30.46484375 C-5.05613386 32.32390229 -5.05613386 32.32390229 -3.875 33.3125 C-2.00178052 33.47303815 -2.00178052 33.47303815 0.125 33.4375 C0.846875 33.44007812 1.56875 33.44265625 2.3125 33.4453125 C4.14589415 33.50945276 4.14589415 33.50945276 5.125 32.3125 C5.19679964 30.79321962 5.20892007 29.27082518 5.1875 27.75 C5.17847656 26.92371094 5.16945313 26.09742187 5.16015625 25.24609375 C5.14855469 24.60800781 5.13695312 23.96992188 5.125 23.3125 C3.805 22.6525 2.485 21.9925 1.125 21.3125 C1.125 19.3325 1.125 17.3525 1.125 15.3125 C1.393125 15.910625 1.66125 16.50875 1.9375 17.125 C3.17303358 19.40098291 4.11108859 20.69417833 6.125 22.3125 C8.62703648 22.88821496 8.62703648 22.88821496 11.3125 23 C13.6946875 23.1546875 13.6946875 23.1546875 16.125 23.3125 C15.795 19.6825 15.465 16.0525 15.125 12.3125 C11.825 12.3125 8.525 12.3125 5.125 12.3125 C4.795 9.3425 4.465 6.3725 4.125 3.3125 C1.155 3.3125 -1.815 3.3125 -4.875 3.3125 C-5.205 5.6225 -5.535 7.9325 -5.875 10.3125 C-7 8.625 -7 8.625 -7.875 6.3125 C-6.27231678 1.01131705 -5.41820153 0.14919685 0 0 Z " fill="#040404" transform="translate(17.875,-0.3125)"/>
<path d="M0 0 C1.98 0 3.96 0 6 0 C6 0.66 6 1.32 6 2 C9.3 2 12.6 2 16 2 C16.36923077 8.52307692 16.36923077 8.52307692 14.5 10.9375 C14.005 11.288125 13.51 11.63875 13 12 C12.34 11.67 11.68 11.34 11 11 C11.33 10.34 11.66 9.68 12 9 C10.02 9 8.04 9 6 9 C6 9.99 6 10.98 6 12 C5.34 12 4.68 12 4 12 C4 11.34 4 10.68 4 10 C3.38125 9.731875 2.7625 9.46375 2.125 9.1875 C0 8 0 8 -2 5 C-1.125 2.3125 -1.125 2.3125 0 0 Z " fill="#F59D18" transform="translate(3,12)"/>
<path d="M0 0 C0.33 0 0.66 0 1 0 C1.66 2.64 2.32 5.28 3 8 C1.02 8 -0.96 8 -3 8 C-3 7.34 -3 6.68 -3 6 C-4.98 6.33 -6.96 6.66 -9 7 C-9.33 8.65 -9.66 10.3 -10 12 C-9.175 12.61875 -8.35 13.2375 -7.5 13.875 C-6.675 14.57625 -5.85 15.2775 -5 16 C-5 16.66 -5 17.32 -5 18 C-4.34 18 -3.68 18 -3 18 C-3 17.01 -3 16.02 -3 15 C-1.02 15 0.96 15 3 15 C2.34 16.32 1.68 17.64 1 19 C-0.79133978 19.05391993 -2.58313899 19.09275571 -4.375 19.125 C-5.37273438 19.14820312 -6.37046875 19.17140625 -7.3984375 19.1953125 C-10 19 -10 19 -12 17 C-12.30078125 14.72265625 -12.30078125 14.72265625 -12.3125 12.0625 C-12.32925781 11.18722656 -12.34601562 10.31195313 -12.36328125 9.41015625 C-12 7 -12 7 -10.7421875 5.1953125 C-7.65446324 3.07682904 -4.64637868 3.8206699 -1 4 C-0.67 2.68 -0.34 1.36 0 0 Z " fill="#181817" transform="translate(12,6)"/>
<path d="M0 0 C0.8146875 0.00257812 1.629375 0.00515625 2.46875 0.0078125 C3.2834375 0.00523438 4.098125 0.00265625 4.9375 0 C6.96875 0.1328125 6.96875 0.1328125 7.96875 1.1328125 C8.171875 3.12890625 8.171875 3.12890625 8.21875 5.5703125 C8.25742187 6.77494141 8.25742187 6.77494141 8.296875 8.00390625 C8.18859375 8.70644531 8.0803125 9.40898437 7.96875 10.1328125 C6.97875 10.7928125 5.98875 11.4528125 4.96875 12.1328125 C5.29875 10.8128125 5.62875 9.4928125 5.96875 8.1328125 C3.32875 8.4628125 0.68875 8.7928125 -2.03125 9.1328125 C-2.91015625 2.98046875 -2.91015625 2.98046875 -3.03125 1.1328125 C-2.03125 0.1328125 -2.03125 0.1328125 0 0 Z " fill="#4D4D4D" transform="translate(15.03125,1.8671875)"/>
<path d="M0 0 C2 2 2 2 2.1953125 4.1640625 C2.17210937 4.97617187 2.14890625 5.78828125 2.125 6.625 C2.10695313 7.44226563 2.08890625 8.25953125 2.0703125 9.1015625 C2.03550781 10.04128906 2.03550781 10.04128906 2 11 C-3.41538462 12.23076923 -3.41538462 12.23076923 -6.375 11.0625 C-6.91125 10.711875 -7.4475 10.36125 -8 10 C-7.34 7.36 -6.68 4.72 -6 2 C-4.02 2 -2.04 2 0 2 C0 1.34 0 0.68 0 0 Z " fill="#252525" transform="translate(32,12)"/>
<path d="M0 0 C1.98 0 3.96 0 6 0 C6 0.66 6 1.32 6 2 C9.3 2 12.6 2 16 2 C16.36923077 8.52307692 16.36923077 8.52307692 14.5 10.9375 C14.005 11.288125 13.51 11.63875 13 12 C12.34 11.67 11.68 11.34 11 11 C11.33 10.34 11.66 9.68 12 9 C10.02 9 8.04 9 6 9 C6 9.99 6 10.98 6 12 C5.34 12 4.68 12 4 12 C4.33 10.68 4.66 9.36 5 8 C8.3 8 11.6 8 15 8 C15 6.35 15 4.7 15 3 C11.7 3 8.4 3 5 3 C5 2.34 5 1.68 5 1 C3.02 2.32 1.04 3.64 -1 5 C-0.67 3.35 -0.34 1.7 0 0 Z " fill="#968162" transform="translate(3,12)"/>
<path d="M0 0 C1.37478516 0.01740234 1.37478516 0.01740234 2.77734375 0.03515625 C3.69644531 0.04417969 4.61554687 0.05320313 5.5625 0.0625 C6.27277344 0.07410156 6.98304687 0.08570313 7.71484375 0.09765625 C10.02387647 4.08117834 9.58000903 6.59879678 8.71484375 11.09765625 C8.38484375 11.09765625 8.05484375 11.09765625 7.71484375 11.09765625 C7.38484375 8.45765625 7.05484375 5.81765625 6.71484375 3.09765625 C3.74484375 3.09765625 0.77484375 3.09765625 -2.28515625 3.09765625 C-2.61515625 5.40765625 -2.94515625 7.71765625 -3.28515625 10.09765625 C-4.41015625 8.41015625 -4.41015625 8.41015625 -5.28515625 6.09765625 C-3.48672693 0.14900542 -3.48672693 0.14900542 0 0 Z " fill="#010101" transform="translate(15.28515625,-0.09765625)"/>
<path d="M0 0 C0.37125 0.45375 0.7425 0.9075 1.125 1.375 C3.54264685 3.47029394 5.95430602 4.12013285 9 5 C9 4.01 9 3.02 9 2 C10.98 2 12.96 2 15 2 C14.34 3.32 13.68 4.64 13 6 C11.20866022 6.05391993 9.41686101 6.09275571 7.625 6.125 C6.62726562 6.14820313 5.62953125 6.17140625 4.6015625 6.1953125 C2 6 2 6 0 4 C0 2.68 0 1.36 0 0 Z " fill="#242423" transform="translate(0,19)"/>
<path d="M0 0 C1.9375 0.3125 1.9375 0.3125 4 1 C4.33 1.99 4.66 2.98 5 4 C2.69 4.33 0.38 4.66 -2 5 C-2.66 6.65 -3.32 8.3 -4 10 C-4.33 10 -4.66 10 -5 10 C-5 8.02 -5 6.04 -5 4 C-4.0409375 3.8453125 -4.0409375 3.8453125 -3.0625 3.6875 C-2.381875 3.460625 -1.70125 3.23375 -1 3 C-0.67 2.01 -0.34 1.02 0 0 Z " fill="#494949" transform="translate(17,21)"/>
<path d="M0 0 C0 1.65 0 3.3 0 5 C-2.64 5 -5.28 5 -8 5 C-8 3.68 -8 2.36 -8 1 C-5.29120665 -0.35439668 -2.99066732 -0.06501451 0 0 Z " fill="#E64F06" transform="translate(18,15)"/>
<path d="M0 0 C1.670625 0.061875 1.670625 0.061875 3.375 0.125 C3.375 0.785 3.375 1.445 3.375 2.125 C1.395 2.125 -0.585 2.125 -2.625 2.125 C-2.563125 3.548125 -2.563125 3.548125 -2.5 5 C-2.625 8.125 -2.625 8.125 -4.625 10.125 C-4.625 8.475 -4.625 6.825 -4.625 5.125 C-5.615 5.455 -6.605 5.785 -7.625 6.125 C-4.84462617 0.16705607 -4.84462617 0.16705607 0 0 Z " fill="#5E5E5E" transform="translate(28.625,11.875)"/>
<path d="M0 0 C0.33 0 0.66 0 1 0 C0.896875 0.886875 0.79375 1.77375 0.6875 2.6875 C1.09498572 7.00684858 2.7722703 8.25642975 6 11 C3.625 10.6875 3.625 10.6875 1 10 C-1.29404844 6.55892734 -1.26293056 5.03160191 -1 1 C-0.67 0.67 -0.34 0.34 0 0 Z " fill="#282825" transform="translate(1,12)"/>
<path d="M0 0 C-0.33 2.97 -0.66 5.94 -1 9 C-1.33 9 -1.66 9 -2 9 C-2.33 6.36 -2.66 3.72 -3 1 C-5.31 0.67 -7.62 0.34 -10 0 C-10 -0.33 -10 -0.66 -10 -1 C-3.375 -2.25 -3.375 -2.25 0 0 Z " fill="#1D1C1C" transform="translate(25,2)"/>
<path d="M0 0 C0.391875 0.45375 0.78375 0.9075 1.1875 1.375 C3.30832487 3.27642919 5.33042235 4.06204028 8 5 C8 5.33 8 5.66 8 6 C5.125 6.125 5.125 6.125 2 6 C1.34 5.34 0.68 4.68 0 4 C0 2.68 0 1.36 0 0 Z " fill="#050505" transform="translate(0,19)"/>
</svg>
