<?xml version="1.0" encoding="UTF-8"?>
<svg version="1.1" xmlns="http://www.w3.org/2000/svg" width="36" height="36">
<path d="M0 0 C0.86625 0.0103125 1.7325 0.020625 2.625 0.03125 C3.924375 0.01578125 3.924375 0.01578125 5.25 0 C7.625 0.53125 7.625 0.53125 9.45703125 2.328125 C11.17887144 5.57601085 10.3650051 8.03304409 9.625 11.53125 C10.285 11.20125 10.945 10.87125 11.625 10.53125 C16.9886082 10.07477271 16.9886082 10.07477271 19.296875 11.73046875 C21.05919072 14.11996153 20.99384084 15.65102447 20.9375 18.59375 C20.93363281 19.47160156 20.92976563 20.34945313 20.92578125 21.25390625 C20.625 23.53125 20.625 23.53125 18.625 25.53125 C16.4609375 25.7265625 16.4609375 25.7265625 14 25.65625 C13.18273437 25.63820313 12.36546875 25.62015625 11.5234375 25.6015625 C10.89695312 25.57835938 10.27046875 25.55515625 9.625 25.53125 C9.8725 26.60375 10.12 27.67625 10.375 28.78125 C10.625 32.53125 10.625 32.53125 9.1875 34.96875 C5.41660809 37.26807434 3.01539697 36.94938304 -1.375 36.53125 C-4.375 34.53125 -4.375 34.53125 -5.125 32.71875 C-5.42154743 30.12396 -5.00534051 28.05261205 -4.375 25.53125 C-5.00148438 25.55445312 -5.62796875 25.57765625 -6.2734375 25.6015625 C-7.49933594 25.62863281 -7.49933594 25.62863281 -8.75 25.65625 C-9.96816406 25.69105469 -9.96816406 25.69105469 -11.2109375 25.7265625 C-13.375 25.53125 -13.375 25.53125 -15.375 23.53125 C-15.67578125 21.25390625 -15.67578125 21.25390625 -15.6875 18.59375 C-15.70425781 17.71847656 -15.72101562 16.84320312 -15.73828125 15.94140625 C-15.375 13.53125 -15.375 13.53125 -14.1171875 11.6953125 C-10.9562684 9.58330826 -7.97056534 10.88286937 -4.375 11.53125 C-4.7153125 9.9225 -4.7153125 9.9225 -5.0625 8.28125 C-5.375 4.53125 -5.375 4.53125 -4.20703125 2.328125 C-2.375 0.53125 -2.375 0.53125 0 0 Z " fill="#070606" transform="translate(15.375,-0.53125)"/>
<path d="M0 0 C0.8146875 0.00257812 1.629375 0.00515625 2.46875 0.0078125 C3.2834375 0.00523438 4.098125 0.00265625 4.9375 0 C6.96875 0.1328125 6.96875 0.1328125 7.96875 1.1328125 C8.04054964 2.65209288 8.05267007 4.17448732 8.03125 5.6953125 C8.02222656 6.52160156 8.01320313 7.34789062 8.00390625 8.19921875 C7.99230469 8.83730469 7.98070313 9.47539062 7.96875 10.1328125 C10.60875 10.1328125 13.24875 10.1328125 15.96875 10.1328125 C12.96875 12.1328125 12.96875 12.1328125 10.96875 12.1328125 C10.989375 13.0815625 11.01 14.0303125 11.03125 15.0078125 C10.96875 18.1328125 10.96875 18.1328125 9.96875 20.1328125 C2.96127856 21.69002838 -4.89843567 21.53234411 -12.03125 21.1328125 C-13.03125 20.1328125 -13.03125 20.1328125 -13.1640625 18.1015625 C-13.16148438 17.286875 -13.15890625 16.4721875 -13.15625 15.6328125 C-13.15882812 14.818125 -13.16140625 14.0034375 -13.1640625 13.1640625 C-13.03125 11.1328125 -13.03125 11.1328125 -12.03125 10.1328125 C-7.79810233 9.89320037 -4.66388511 9.80792603 -1.03125 12.1328125 C-1.52625 11.0809375 -1.52625 11.0809375 -2.03125 10.0078125 C-3.12883996 6.85224137 -3.25745981 4.45055642 -3.03125 1.1328125 C-2.03125 0.1328125 -2.03125 0.1328125 0 0 Z " fill="#4E4E4E" transform="translate(15.03125,1.8671875)"/>
<path d="M0 0 C0.484375 1.99609375 0.484375 1.99609375 0.75 4.4375 C0.89695312 5.64212891 0.89695312 5.64212891 1.046875 6.87109375 C1 9 1 9 -1 11 C-2.875 11.265625 -2.875 11.265625 -5 11.25 C-5.70125 11.25515625 -6.4025 11.2603125 -7.125 11.265625 C-9 11 -9 11 -11 9 C-11.25 5.5 -11.25 5.5 -11 2 C-8.0843098 -0.9156902 -3.79153866 -1.89576933 0 0 Z " fill="#202020" transform="translate(23,23)"/>
<path d="M0 0 C3.625 0.1875 3.625 0.1875 6.625 2.1875 C7.32552461 4.850563 7.40244818 7.42785737 7.625 10.1875 C5.2453388 11.3773306 3.71014265 11.32099966 1.0625 11.3125 C-0.14599609 11.31636719 -0.14599609 11.31636719 -1.37890625 11.3203125 C-3.375 11.1875 -3.375 11.1875 -4.375 10.1875 C-4.4729057 8.69011876 -4.50474864 7.18807108 -4.5 5.6875 C-4.50257812 4.8728125 -4.50515625 4.058125 -4.5078125 3.21875 C-4.28108835 -0.24879582 -3.59214025 0.19956335 0 0 Z " fill="#444444" transform="translate(6.375,11.8125)"/>
<path d="M0 0 C2 2 2 2 2.25 5 C2 8 2 8 0 10 C-3 10.25 -3 10.25 -6 10 C-8 8 -8 8 -8.3125 5 C-8.209375 4.01 -8.10625 3.02 -8 2 C-4.77626323 -0.14915785 -3.73296326 -0.38286803 0 0 Z " fill="#D68032" transform="translate(21,13)"/>
<path d="M0 0 C1.20272819 2.40545638 1.10071472 3.94996953 1.0625 6.625 C1.05347656 7.44226563 1.04445313 8.25953125 1.03515625 9.1015625 C1.02355469 9.72804688 1.01195312 10.35453125 1 11 C-4.41538462 12.23076923 -4.41538462 12.23076923 -7.375 11.0625 C-7.91125 10.711875 -8.4475 10.36125 -9 10 C-8.03927315 4.58499414 -8.03927315 4.58499414 -7 2 C-4.45772482 0.47463489 -2.93497883 0 0 0 Z " fill="#262626" transform="translate(33,12)"/>
<path d="M0 0 C0 0.99 0 1.98 0 3 C2.97 3 5.94 3 9 3 C6 5 6 5 4 5 C4.020625 5.94875 4.04125 6.8975 4.0625 7.875 C4 11 4 11 3 13 C2.01 12.67 1.02 12.34 0 12 C0.0309375 10.5459375 0.0309375 10.5459375 0.0625 9.0625 C0.35618499 6.12534105 0.35618499 6.12534105 -1 5 C-1.969375 5.04125 -2.93875 5.0825 -3.9375 5.125 C-4.948125 5.08375 -5.95875 5.0425 -7 5 C-7.66 4.01 -8.32 3.02 -9 2 C-5.5647952 -0.29013653 -4.014669 -0.17842973 0 0 Z " fill="#2E2E2D" transform="translate(22,9)"/>
<path d="M0 0 C0.33 0.99 0.66 1.98 1 3 C-1.31 3.33 -3.62 3.66 -6 4 C-6.66 5.65 -7.32 7.3 -8 9 C-8.33 9 -8.66 9 -9 9 C-9.125 6.125 -9.125 6.125 -9 3 C-6.23776722 0.23776722 -3.79293383 0.42143709 0 0 Z " fill="#515150" transform="translate(21,22)"/>
<path d="M0 0 C0.94875 0.04125 1.8975 0.0825 2.875 0.125 C-0.125 2.125 -0.125 2.125 -2.125 2.125 C-2.104375 3.07375 -2.08375 4.0225 -2.0625 5 C-2.125 8.125 -2.125 8.125 -3.125 10.125 C-4.115 9.795 -5.105 9.465 -6.125 9.125 C-5.13392857 0.20535714 -5.13392857 0.20535714 0 0 Z " fill="#5A5A59" transform="translate(28.125,11.875)"/>
<path d="M0 0 C1.98 0 3.96 0 6 0 C6.33 1.32 6.66 2.64 7 4 C4.36 4 1.72 4 -1 4 C-0.67 2.68 -0.34 1.36 0 0 Z " fill="#FE8C00" transform="translate(15,15)"/>
<path d="M0 0 C0.66 0.33 1.32 0.66 2 1 C2 3.31 2 5.62 2 8 C1.01 8.33 0.02 8.66 -1 9 C-1.09765625 2.84765625 -1.09765625 2.84765625 -1 1 C-0.67 0.67 -0.34 0.34 0 0 Z " fill="#2B2C2B" transform="translate(11,13)"/>
<path d="M0 0 C-0.33 2.97 -0.66 5.94 -1 9 C-1.33 9 -1.66 9 -2 9 C-2.33 6.36 -2.66 3.72 -3 1 C-5.31 0.67 -7.62 0.34 -10 0 C-10 -0.33 -10 -0.66 -10 -1 C-3.375 -2.25 -3.375 -2.25 0 0 Z " fill="#1D1C1C" transform="translate(25,2)"/>
</svg>
