<?xml version="1.0" encoding="UTF-8"?>
<svg version="1.1" xmlns="http://www.w3.org/2000/svg" width="36" height="36">
<path d="M0 0 C3.60389664 -0.11601004 7.20731467 -0.18718408 10.8125 -0.25 C11.83666016 -0.28351562 12.86082031 -0.31703125 13.91601562 -0.3515625 C14.89892578 -0.36445312 15.88183594 -0.37734375 16.89453125 -0.390625 C17.80050049 -0.41157227 18.70646973 -0.43251953 19.63989258 -0.45410156 C22 0 22 0 23.83862305 1.79003906 C25.54818504 5.04313032 24.74006855 7.50149414 24 11 C24.66 10.67 25.32 10.34 26 10 C31.3636082 9.54352271 31.3636082 9.54352271 33.671875 11.19921875 C35.43419072 13.58871153 35.36884084 15.11977447 35.3125 18.0625 C35.30863281 18.94035156 35.30476563 19.81820313 35.30078125 20.72265625 C35 23 35 23 33 25 C30.8359375 25.1953125 30.8359375 25.1953125 28.375 25.125 C27.55773437 25.10695313 26.74046875 25.08890625 25.8984375 25.0703125 C25.27195312 25.04710938 24.64546875 25.02390625 24 25 C24.2475 26.0725 24.495 27.145 24.75 28.25 C25 32 25 32 23.5625 34.4375 C19.79160809 36.73682434 17.39039697 36.41813304 13 36 C10 34 10 34 9.25 32.1875 C8.95345257 29.59271 9.36965949 27.52136205 10 25 C9.37351562 25.02320312 8.74703125 25.04640625 8.1015625 25.0703125 C6.87566406 25.09738281 6.87566406 25.09738281 5.625 25.125 C4.40683594 25.15980469 4.40683594 25.15980469 3.1640625 25.1953125 C1 25 1 25 -1 23 C-1.90001984 15.47949522 -0.6588074 7.50569864 0 0 Z " fill="#0E0D0D" transform="translate(1,0)"/>
<path d="M0 0 C2 2 2 2 2.3125 5.4375 C2 9 2 9 0.8125 10.875 C-1.4225789 12.26229035 -3.40905378 12.64987213 -6 13 C-6.1546875 14.1446875 -6.1546875 14.1446875 -6.3125 15.3125 C-7.07267758 18.28410326 -7.61086468 19.1560365 -10 21 C-12.2265625 21.328125 -12.2265625 21.328125 -14.625 21.25 C-15.81996094 21.22679687 -15.81996094 21.22679687 -17.0390625 21.203125 C-19 21 -19 21 -20 20 C-20.07179964 18.48071962 -20.08392007 16.95832518 -20.0625 15.4375 C-20.05347656 14.61121094 -20.04445313 13.78492188 -20.03515625 12.93359375 C-20.02355469 12.29550781 -20.01195313 11.65742188 -20 11 C-18.68 10.34 -17.36 9.68 -16 9 C-17.32 9 -18.64 9 -20 9 C-20 5.7 -20 2.4 -20 -1 C-13.00225791 -1.88579014 -6.72110646 -2.5259543 0 0 Z " fill="#3A3A39" transform="translate(22,2)"/>
<path d="M0 0 C2.96175123 0.61277612 4.38058783 1.25372522 7 3 C7.58203125 5.09375 7.58203125 5.09375 7.8125 7.5 C7.94591797 8.69109375 7.94591797 8.69109375 8.08203125 9.90625 C8 12 8 12 6 14 C4.125 14.265625 4.125 14.265625 2 14.25 C1.29875 14.25515625 0.5975 14.2603125 -0.125 14.265625 C-2 14 -2 14 -4 12 C-4.48602588 7.70677141 -4.46241608 5.67917361 -2 2.0625 C-1.34 1.381875 -0.68 0.70125 0 0 Z " fill="#202020" transform="translate(16,20)"/>
<path d="M0 0 C1.20272819 2.40545638 1.10071472 3.94996953 1.0625 6.625 C1.05347656 7.44226563 1.04445313 8.25953125 1.03515625 9.1015625 C1.02355469 9.72804688 1.01195312 10.35453125 1 11 C-3.39690684 12.02253647 -5.98872814 12.16825506 -10 10 C-11.8125 8.5625 -11.8125 8.5625 -13 7 C-13 4 -13 4 -11 1.8125 C-6.98946389 -0.61053223 -4.62201404 -0.31335688 0 0 Z " fill="#252525" transform="translate(33,12)"/>
<path d="M0 0 C8.16221766 -0.61601643 8.16221766 -0.61601643 11.125 1.5625 C12.34312612 4.95585133 11.7352039 7.52449066 11 11 C11.66 10.67 12.32 10.34 13 10 C18.3636082 9.54352271 18.3636082 9.54352271 20.671875 11.19921875 C22.43419072 13.58871153 22.36884084 15.11977447 22.3125 18.0625 C22.30863281 18.94035156 22.30476563 19.81820313 22.30078125 20.72265625 C22 23 22 23 20 25 C17.8359375 25.1953125 17.8359375 25.1953125 15.375 25.125 C14.55773438 25.10695313 13.74046875 25.08890625 12.8984375 25.0703125 C12.27195312 25.04710938 11.64546875 25.02390625 11 25 C11.2475 26.0725 11.495 27.145 11.75 28.25 C12 32 12 32 10.4375 34.5 C8 36 8 36 4.75 35.75 C3.8425 35.5025 2.935 35.255 2 35 C2 34.67 2 34.34 2 34 C4.31 33.34 6.62 32.68 9 32 C9 29.03 9 26.06 9 23 C12.63 23 16.26 23 20 23 C19.67 19.37 19.34 15.74 19 12 C15.7 12 12.4 12 9 12 C9.09765625 9.98177083 9.1953125 7.96354167 9.29296875 5.9453125 C9.19628906 5.30335938 9.09960938 4.66140625 9 4 C5.81237635 1.87491756 3.73487777 1.4979837 0 1 C0 0.67 0 0.34 0 0 Z " fill="#050504" transform="translate(14,0)"/>
<path d="M0 0 C2.64 0 5.28 0 8 0 C8.061875 0.7425 8.12375 1.485 8.1875 2.25 C9.24185138 5.8185739 10.99909773 6.92245228 14 9 C13.67 10.32 13.34 11.64 13 13 C8.59033771 12.51003752 7.02554636 11.12314463 4 8 C1.8618034 7.2127322 1.8618034 7.2127322 0 7 C0 4.69 0 2.38 0 0 Z " fill="#FE9706" transform="translate(3,2)"/>
<path d="M0 0 C0.33 -0.66 0.66 -1.32 1 -2 C1.75 -0.25 1.75 -0.25 2 2 C0.625 4.25 0.625 4.25 -2 6 C-5.02991489 6.33318652 -7.96503351 6.23345896 -11 6 C-12.53445094 2.93109813 -11.54984289 0.29905734 -11 -3 C-6.06995512 -4.74001584 -3.98367078 -3.05723572 0 0 Z " fill="#3B3A3A" transform="translate(14,17)"/>
<path d="M0 0 C1.65 0 3.3 0 5 0 C3.68 0.33 2.36 0.66 1 1 C1 3.31 1 5.62 1 8 C1.70125 8.061875 2.4025 8.12375 3.125 8.1875 C7.08915867 9.30780571 9.02216113 11.16066526 12 14 C12 14.66 12 15.32 12 16 C10 15 8 14 6 13 C4.33380554 12.9603287 2.66608987 12.95615553 1 13 C1 15.31 1 17.62 1 20 C0.67 20 0.34 20 0 20 C0 17.36 0 14.72 0 12 C1.32 11.34 2.64 10.68 4 10 C2.68 10 1.36 10 0 10 C0 6.7 0 3.4 0 0 Z " fill="#907C5C" transform="translate(2,1)"/>
<path d="M0 0 C0 0.66 0 1.32 0 2 C-1.98 2 -3.96 2 -6 2 C-5.979375 2.94875 -5.95875 3.8975 -5.9375 4.875 C-6 8 -6 8 -7 10 C-8.9375 9.25 -8.9375 9.25 -11 8 C-11.75 5.875 -11.75 5.875 -12 4 C-7.99899414 0.12023674 -5.51903037 -0.43286513 0 0 Z " fill="#555454" transform="translate(32,12)"/>
<path d="M0 0 C1.875 0.25 1.875 0.25 4 1 C5.25 3.0625 5.25 3.0625 6 5 C3.69 5.33 1.38 5.66 -1 6 C-1.66 7.65 -2.32 9.3 -3 11 C-3.33 11 -3.66 11 -4 11 C-4.36630156 7.06225823 -4.30233203 5.43460229 -2 2.125 C-1.34 1.42375 -0.68 0.7225 0 0 Z " fill="#515151" transform="translate(16,20)"/>
<path d="M0 0 C2.3125 1.375 2.3125 1.375 4 3 C3.67 4.32 3.34 5.64 3 7 C-0.24208567 6.64950425 -1.61527704 6.43778819 -3.8125 3.9375 C-4.4003125 2.9784375 -4.4003125 2.9784375 -5 2 C-2.75 0.8125 -2.75 0.8125 0 0 Z " fill="#DA631B" transform="translate(13,8)"/>
<path d="M0 0 C2.64 0 5.28 0 8 0 C8 1.32 8 2.64 8 4 C7.34 4 6.68 4 6 4 C6 3.34 6 2.68 6 2 C4.05000871 2.19471111 4.05000871 2.19471111 2 3 C0.71563266 4.9837767 0.71563266 4.9837767 0 7 C0 4.69 0 2.38 0 0 Z " fill="#E4B332" transform="translate(3,2)"/>
<path d="M0 0 C0.33 0 0.66 0 1 0 C1.66 2.64 2.32 5.28 3 8 C5.64 8.33 8.28 8.66 11 9 C11 9.33 11 9.66 11 10 C9.54364629 10.22174933 8.08477044 10.42698698 6.625 10.625 C5.81289062 10.74101562 5.00078125 10.85703125 4.1640625 10.9765625 C3.44992187 10.98429687 2.73578125 10.99203125 2 11 C0 9 0 9 -0.1953125 6.8359375 C-0.17210938 6.02382813 -0.14890625 5.21171875 -0.125 4.375 C-0.10695312 3.55773437 -0.08890625 2.74046875 -0.0703125 1.8984375 C-0.04710937 1.27195312 -0.02390625 0.64546875 0 0 Z " fill="#0A0A0A" transform="translate(0,14)"/>
<path d="M0 0 C2.31 0 4.62 0 7 0 C6.34 1.32 5.68 2.64 5 4 C1.125 2.25 1.125 2.25 0 0 Z " fill="#2E2F2E" transform="translate(15,9)"/>
<path d="M0 0 C1.98 0.99 1.98 0.99 4 2 C2.25 5.875 2.25 5.875 0 7 C0 4.69 0 2.38 0 0 Z " fill="#272827" transform="translate(10,15)"/>
<path d="M0 0 C2.64 0 5.28 0 8 0 C8 0.33 8 0.66 8 1 C5.69 1 3.38 1 1 1 C0.67 2.65 0.34 4.3 0 6 C-0.66 5.34 -1.32 4.68 -2 4 C-1.34 2.68 -0.68 1.36 0 0 Z " fill="#767470" transform="translate(13,2)"/>
</svg>
