<?xml version="1.0" encoding="UTF-8"?>
<svg version="1.1" xmlns="http://www.w3.org/2000/svg" width="36" height="36">
<path d="M0 0 C0.90596924 0.02094727 1.81193848 0.04189453 2.74536133 0.06347656 C4.21972656 0.0828125 4.21972656 0.0828125 5.72387695 0.10253906 C6.74803711 0.13605469 7.77219727 0.16957031 8.82739258 0.20410156 C10.38103516 0.23117187 10.38103516 0.23117187 11.96606445 0.25878906 C14.52493541 0.30595719 17.081951 0.37176099 19.63989258 0.45410156 C21.22763204 18.54299045 21.22763204 18.54299045 20.63989258 23.45410156 C18.63989258 25.45410156 18.63989258 25.45410156 16.47583008 25.64941406 C15.6637207 25.62621094 14.85161133 25.60300781 14.01489258 25.57910156 C13.19762695 25.56105469 12.38036133 25.54300781 11.53833008 25.52441406 C10.9118457 25.50121094 10.28536133 25.47800781 9.63989258 25.45410156 C9.88739258 26.52660156 10.13489258 27.59910156 10.38989258 28.70410156 C10.63989258 32.45410156 10.63989258 32.45410156 9.20239258 34.89160156 C5.43150067 37.1909259 3.03028955 36.87223461 -1.36010742 36.45410156 C-4.36010742 34.45410156 -4.36010742 34.45410156 -5.11010742 32.64160156 C-5.40665485 30.04681156 -4.99044793 27.97546361 -4.36010742 25.45410156 C-4.9865918 25.47730469 -5.61307617 25.50050781 -6.25854492 25.52441406 C-7.48444336 25.55148438 -7.48444336 25.55148438 -8.73510742 25.57910156 C-9.95327148 25.61390625 -9.95327148 25.61390625 -11.19604492 25.64941406 C-13.36010742 25.45410156 -13.36010742 25.45410156 -15.36010742 23.45410156 C-15.66088867 21.17675781 -15.66088867 21.17675781 -15.67260742 18.51660156 C-15.68936523 17.64132813 -15.70612305 16.76605469 -15.72338867 15.86425781 C-15.36010742 13.45410156 -15.36010742 13.45410156 -14.10229492 11.61816406 C-10.94137582 9.50615982 -7.95567276 10.80572093 -4.36010742 11.45410156 C-4.70041992 9.84535156 -4.70041992 9.84535156 -5.04760742 8.20410156 C-5.36010742 4.45410156 -5.36010742 4.45410156 -4.19873047 2.24414062 C-2.36010742 0.45410156 -2.36010742 0.45410156 0 0 Z " fill="#090909" transform="translate(15.360107421875,-0.4541015625)"/>
<path d="M0 0 C2.97 0 5.94 0 9 0 C9 6.93 9 13.86 9 21 C2.00636943 22.1656051 2.00636943 22.1656051 -2 20 C-3.8125 18.6875 -3.8125 18.6875 -5 17 C-5.1875 14.5625 -5.1875 14.5625 -5 12 C-5 10.68 -5 9.36 -5 8 C-3.68799596 6.64567325 -2.35368596 5.31266518 -1 4 C-0.67 2.68 -0.34 1.36 0 0 Z " fill="#2A2A28" transform="translate(25,2)"/>
<path d="M0 0 C2.96175123 0.61277612 4.38058783 1.25372522 7 3 C7.58203125 5.09375 7.58203125 5.09375 7.8125 7.5 C7.94591797 8.69109375 7.94591797 8.69109375 8.08203125 9.90625 C8 12 8 12 6 14 C4.125 14.265625 4.125 14.265625 2 14.25 C1.29875 14.25515625 0.5975 14.2603125 -0.125 14.265625 C-2 14 -2 14 -4 12 C-4.48602588 7.70677141 -4.46241608 5.67917361 -2 2.0625 C-1.34 1.381875 -0.68 0.70125 0 0 Z " fill="#202020" transform="translate(16,20)"/>
<path d="M0 0 C4.95113591 0.48699697 6.32030366 1.96797918 9.8125 5.375 C8.66076645 7.84300047 7.76466435 9.42283565 5.8125 11.375 C3.68359375 11.60546875 3.68359375 11.60546875 1.25 11.5625 C0.04150391 11.55283203 0.04150391 11.55283203 -1.19140625 11.54296875 C-3.1875 11.375 -3.1875 11.375 -4.1875 10.375 C-4.2854057 8.87761876 -4.31724864 7.37557108 -4.3125 5.875 C-4.31507812 5.0603125 -4.31765625 4.245625 -4.3203125 3.40625 C-4.10048921 0.04424677 -3.45154899 0.40606459 0 0 Z " fill="#454444" transform="translate(6.1875,11.625)"/>
<path d="M0 0 C2.97 0 5.94 0 9 0 C9 2.97 9 5.94 9 9 C8.113125 9.061875 7.22625 9.12375 6.3125 9.1875 C2.25918008 10.18171055 0.70168251 11.90101124 -2 15 C-3.32 13.68 -4.64 12.36 -6 11 C-5 8 -5 8 -3 6.0625 C-0.63775211 3.97120044 -0.63775211 3.97120044 0 0 Z " fill="#F47B0F" transform="translate(25,2)"/>
<path d="M0 0 C0.8146875 0.00257812 1.629375 0.00515625 2.46875 0.0078125 C3.2834375 0.00523438 4.098125 0.00265625 4.9375 0 C6.96875 0.1328125 6.96875 0.1328125 7.96875 1.1328125 C8.21875 4.0703125 8.21875 4.0703125 7.96875 7.1328125 C6.97875 7.7928125 5.98875 8.4528125 4.96875 9.1328125 C5.29875 10.4528125 5.62875 11.7728125 5.96875 13.1328125 C2.82035094 13.48263462 1.34851221 13.37914474 -1.34375 11.6328125 C-3.81422793 7.9728452 -3.38896597 5.49694737 -3.03125 1.1328125 C-2.03125 0.1328125 -2.03125 0.1328125 0 0 Z " fill="#4E4E4D" transform="translate(15.03125,1.8671875)"/>
<path d="M0 0 C0 0.33 0 0.66 0 1 C-2.97 1.66 -5.94 2.32 -9 3 C-9.59168863 8.13016014 -9.59168863 8.13016014 -7.88671875 12.796875 C-6.62711418 14.23034048 -5.31603609 15.61816211 -4 17 C-4 17.66 -4 18.32 -4 19 C-4.66 19 -5.32 19 -6 19 C-6.5775 18.21625 -7.155 17.4325 -7.75 16.625 C-10.34121129 13.60192016 -12.19684394 12.95078902 -16 12 C-16 11.34 -16 10.68 -16 10 C-13.525 10.495 -13.525 10.495 -11 11 C-11.226875 9.9275 -11.45375 8.855 -11.6875 7.75 C-12 4 -12 4 -11.125 1.5625 C-7.72112296 -0.94035076 -4.08361405 -0.30819729 0 0 Z " fill="#030303" transform="translate(22,0)"/>
<path d="M0 0 C1.875 0.25 1.875 0.25 4 1 C5.25 3.0625 5.25 3.0625 6 5 C3.69 5.33 1.38 5.66 -1 6 C-1.66 7.65 -2.32 9.3 -3 11 C-3.33 11 -3.66 11 -4 11 C-4.36630156 7.06225823 -4.30233203 5.43460229 -2 2.125 C-1.34 1.42375 -0.68 0.7225 0 0 Z " fill="#515151" transform="translate(16,20)"/>
<path d="M0 0 C2.97 0 5.94 0 9 0 C9 2.97 9 5.94 9 9 C7.68 8.34 6.36 7.68 5 7 C5.66 7 6.32 7 7 7 C7.33 5.02 7.66 3.04 8 1 C7.01 1 6.02 1 5 1 C4.67 1.66 4.34 2.32 4 3 C3.34 2.67 2.68 2.34 2 2 C1.71125 2.639375 1.4225 3.27875 1.125 3.9375 C0 6 0 6 -2 7 C-1.34 4.69 -0.68 2.38 0 0 Z " fill="#CCA548" transform="translate(25,2)"/>
<path d="M0 0 C0 1.65 0 3.3 0 5 C-0.33 4.01 -0.66 3.02 -1 2 C-3.97 2 -6.94 2 -10 2 C-10.33 3.65 -10.66 5.3 -11 7 C-11.2784375 6.0409375 -11.2784375 6.0409375 -11.5625 5.0625 C-12.94246056 2.57873787 -12.94246056 2.57873787 -16.625 2.25 C-17.73875 2.1675 -18.8525 2.085 -20 2 C-20 1.67 -20 1.34 -20 1 C-13.34362157 -0.23839599 -6.7528064 -0.09139136 0 0 Z " fill="#252622" transform="translate(35,0)"/>
<path d="M0 0 C0 2.97 0 5.94 0 9 C1.98 9.99 3.96 10.98 6 12 C6 12.33 6 12.66 6 13 C3.69 12.67 1.38 12.34 -1 12 C-2.83691257 8.21812119 -3.15837626 6.05431692 -2 2 C-4.31 2 -6.62 2 -9 2 C-9 1.67 -9 1.34 -9 1 C-2.25 0 -2.25 0 0 0 Z " fill="#010101" transform="translate(13,23)"/>
<path d="M0 0 C1.32 0.33 2.64 0.66 4 1 C4.12375 1.598125 4.2475 2.19625 4.375 2.8125 C4.95475985 5.26231348 4.95475985 5.26231348 7 8 C4.07120629 7.37240135 1.63904371 6.41377341 -1 5 C-1.66 6.32 -2.32 7.64 -3 9 C-3.66 8.34 -4.32 7.68 -5 7 C-3.06745228 4.9754262 -1.36841312 3.57894208 1 2 C0.67 1.34 0.34 0.68 0 0 Z " fill="#0D0D0D" transform="translate(17,15)"/>
<path d="M0 0 C-0.185625 0.61875 -0.37125 1.2375 -0.5625 1.875 C-1.23686176 4.04160178 -1.23686176 4.04160178 0 6 C-2.3125 6.25 -2.3125 6.25 -5 6 C-6.8125 4 -6.8125 4 -8 2 C-4.77208445 -0.1519437 -3.71599191 -0.20086443 0 0 Z " fill="#2F2F2E" transform="translate(21,9)"/>
<path d="M0 0 C1.65 1.32 3.3 2.64 5 4 C3.62308038 6.75383923 1.63279958 7.51483101 -1 9 C-1.09765625 2.84765625 -1.09765625 2.84765625 -1 1 C-0.67 0.67 -0.34 0.34 0 0 Z " fill="#2C2C2C" transform="translate(11,13)"/>
<path d="M0 0 C0.99 0.33 1.98 0.66 3 1 C3.66 0.67 4.32 0.34 5 0 C4.67 2.31 4.34 4.62 4 7 C2.0625 6.25 2.0625 6.25 0 5 C-0.8125 2.9375 -0.8125 2.9375 -1 1 C-0.67 0.67 -0.34 0.34 0 0 Z " fill="#4C4C4A" transform="translate(21,15)"/>
<path d="M0 0 C3.16115776 1.36983503 3.9927092 1.9890638 6 5 C5.01 5.66 4.02 6.32 3 7 C1.68 5.68 0.36 4.36 -1 3 C-0.67 2.01 -0.34 1.02 0 0 Z " fill="#D16930" transform="translate(20,10)"/>
<path d="M0 0 C-0.33 1.98 -0.66 3.96 -1 6 C-2.98 5.34 -4.96 4.68 -7 4 C-6.67 3.01 -6.34 2.02 -6 1 C-3 0 -3 0 0 0 Z " fill="#FFA002" transform="translate(33,3)"/>
</svg>
