<?xml version="1.0" encoding="UTF-8"?>
<svg version="1.1" xmlns="http://www.w3.org/2000/svg" width="36" height="36">
<path d="M0 0 C0.86625 0.0103125 1.7325 0.020625 2.625 0.03125 C3.924375 0.01578125 3.924375 0.01578125 5.25 0 C7.625 0.53125 7.625 0.53125 9.45703125 2.328125 C11.17887144 5.57601085 10.3650051 8.03304409 9.625 11.53125 C10.285 11.20125 10.945 10.87125 11.625 10.53125 C16.9886082 10.07477271 16.9886082 10.07477271 19.296875 11.73046875 C21.05919072 14.11996153 20.99384084 15.65102447 20.9375 18.59375 C20.93363281 19.47160156 20.92976563 20.34945313 20.92578125 21.25390625 C20.625 23.53125 20.625 23.53125 18.625 25.53125 C16.4609375 25.7265625 16.4609375 25.7265625 14 25.65625 C13.18273437 25.63820313 12.36546875 25.62015625 11.5234375 25.6015625 C10.89695312 25.57835938 10.27046875 25.55515625 9.625 25.53125 C9.8725 26.60375 10.12 27.67625 10.375 28.78125 C10.625 32.53125 10.625 32.53125 9.1875 34.96875 C5.41660809 37.26807434 3.01539697 36.94938304 -1.375 36.53125 C-4.375 34.53125 -4.375 34.53125 -5.125 31.03125 C-5.375 27.53125 -5.375 27.53125 -4.375 25.53125 C-5.00148438 25.55445312 -5.62796875 25.57765625 -6.2734375 25.6015625 C-7.49933594 25.62863281 -7.49933594 25.62863281 -8.75 25.65625 C-9.96816406 25.69105469 -9.96816406 25.69105469 -11.2109375 25.7265625 C-13.375 25.53125 -13.375 25.53125 -15.375 23.53125 C-15.67578125 21.25390625 -15.67578125 21.25390625 -15.6875 18.59375 C-15.70425781 17.71847656 -15.72101562 16.84320312 -15.73828125 15.94140625 C-15.375 13.53125 -15.375 13.53125 -14.1171875 11.6953125 C-10.9562684 9.58330826 -7.97056534 10.88286937 -4.375 11.53125 C-4.7153125 9.9225 -4.7153125 9.9225 -5.0625 8.28125 C-5.375 4.53125 -5.375 4.53125 -4.20703125 2.328125 C-2.375 0.53125 -2.375 0.53125 0 0 Z " fill="#424242" transform="translate(15.375,-0.53125)"/>
<path d="M0 0 C0.86625 0.0103125 1.7325 0.020625 2.625 0.03125 C3.924375 0.01578125 3.924375 0.01578125 5.25 0 C7.625 0.53125 7.625 0.53125 9.45703125 2.328125 C11.17887144 5.57601085 10.3650051 8.03304409 9.625 11.53125 C10.285 11.20125 10.945 10.87125 11.625 10.53125 C16.9886082 10.07477271 16.9886082 10.07477271 19.296875 11.73046875 C21.05919072 14.11996153 20.99384084 15.65102447 20.9375 18.59375 C20.93363281 19.47160156 20.92976563 20.34945313 20.92578125 21.25390625 C20.625 23.53125 20.625 23.53125 18.625 25.53125 C16.4609375 25.7265625 16.4609375 25.7265625 14 25.65625 C13.18273437 25.63820313 12.36546875 25.62015625 11.5234375 25.6015625 C10.89695312 25.57835938 10.27046875 25.55515625 9.625 25.53125 C9.8725 26.60375 10.12 27.67625 10.375 28.78125 C10.625 32.53125 10.625 32.53125 9.1875 34.96875 C5.41660809 37.26807434 3.01539697 36.94938304 -1.375 36.53125 C-4.375 34.53125 -4.375 34.53125 -5.125 31.03125 C-5.375 27.53125 -5.375 27.53125 -4.375 25.53125 C-5.00148438 25.55445312 -5.62796875 25.57765625 -6.2734375 25.6015625 C-7.49933594 25.62863281 -7.49933594 25.62863281 -8.75 25.65625 C-9.96816406 25.69105469 -9.96816406 25.69105469 -11.2109375 25.7265625 C-13.375 25.53125 -13.375 25.53125 -15.375 23.53125 C-15.67578125 21.25390625 -15.67578125 21.25390625 -15.6875 18.59375 C-15.70425781 17.71847656 -15.72101562 16.84320312 -15.73828125 15.94140625 C-15.375 13.53125 -15.375 13.53125 -14.1171875 11.6953125 C-10.9562684 9.58330826 -7.97056534 10.88286937 -4.375 11.53125 C-4.7153125 9.9225 -4.7153125 9.9225 -5.0625 8.28125 C-5.375 4.53125 -5.375 4.53125 -4.20703125 2.328125 C-2.375 0.53125 -2.375 0.53125 0 0 Z M-3.375 3.53125 C-3.97117791 9.13567024 -3.97117791 9.13567024 -1.625 13.96875 C0.54434413 15.47523898 2.0315835 16.16076193 4.625 16.53125 C2.4375 16.78125 2.4375 16.78125 -0.375 16.53125 C-1.550625 15.54125 -1.550625 15.54125 -2.75 14.53125 C-6.13326899 11.95352125 -8.22089188 12.13181653 -12.375 12.53125 C-13.5995178 13.53594623 -13.5995178 13.53594623 -13.5078125 15.5625 C-13.50523438 16.3771875 -13.50265625 17.191875 -13.5 18.03125 C-13.50257812 18.8459375 -13.50515625 19.660625 -13.5078125 20.5 C-13.5995178 22.52655377 -13.5995178 22.52655377 -12.375 23.53125 C-10.85571962 23.60304964 -9.33332518 23.61517007 -7.8125 23.59375 C-6.57306641 23.58021484 -6.57306641 23.58021484 -5.30859375 23.56640625 C-4.67050781 23.55480469 -4.03242188 23.54320313 -3.375 23.53125 C-3.375 24.19125 -3.375 24.85125 -3.375 25.53125 C-2.89874578 29.93660149 -1.28922401 32.24099709 1.625 35.53125 C2.945 34.87125 4.265 34.21125 5.625 33.53125 C5.625 32.87125 5.625 32.21125 5.625 31.53125 C6.285 31.53125 6.945 31.53125 7.625 31.53125 C7.625 30.87125 7.625 30.21125 7.625 29.53125 C8.285 29.53125 8.945 29.53125 9.625 29.53125 C9.625 28.87125 9.625 28.21125 9.625 27.53125 C8.635 27.53125 7.645 27.53125 6.625 27.53125 C6.955 25.88125 7.285 24.23125 7.625 22.53125 C8.676875 23.0571875 8.676875 23.0571875 9.75 23.59375 C13.12768586 24.6951693 15.20580593 24.32641141 18.625 23.53125 C18.6520043 22.07301788 18.67139787 20.61464325 18.6875 19.15625 C18.69910156 18.34414063 18.71070313 17.53203125 18.72265625 16.6953125 C18.76966334 14.48187858 18.76966334 14.48187858 17.625 12.53125 C14.325 12.53125 11.025 12.53125 7.625 12.53125 C7.65755208 10.22005208 7.69010417 7.90885417 7.72265625 5.59765625 C7.85767348 3.53961062 7.85767348 3.53961062 6.625 2.53125 C5.12761876 2.4333443 3.62557108 2.40150136 2.125 2.40625 C1.3103125 2.40367188 0.495625 2.40109375 -0.34375 2.3984375 C-2.37030377 2.3067322 -2.37030377 2.3067322 -3.375 3.53125 Z " fill="#030202" transform="translate(15.375,-0.53125)"/>
<path d="M0 0 C0 0.66 0 1.32 0 2 C-0.99 2.33 -1.98 2.66 -3 3 C-3 5.97 -3 8.94 -3 12 C2.67675932 12.38435046 2.67675932 12.38435046 8 11 C7.7525 12.216875 7.505 13.43375 7.25 14.6875 C6.77449455 18.25696088 6.86144326 18.78546053 8.9375 22 C9.9584375 22.99 9.9584375 22.99 11 24 C11.99 23.67 12.98 23.34 14 23 C14.33 22.34 14.66 21.68 15 21 C15.66 21 16.32 21 17 21 C17 20.34 17 19.68 17 19 C17.66 19 18.32 19 19 19 C19.33 18.34 19.66 17.68 20 17 C19.6875 20.375 19.6875 20.375 19 24 C16.00261059 25.99825961 15.36652492 26.27550398 12 26.25 C10.9790625 26.25773437 10.9790625 26.25773437 9.9375 26.265625 C8 26 8 26 5 24 C3.65 17.7 3.65 17.7 5 15 C4.06027344 15.03480469 4.06027344 15.03480469 3.1015625 15.0703125 C1.87566406 15.09738281 1.87566406 15.09738281 0.625 15.125 C-0.18710938 15.14820313 -0.99921875 15.17140625 -1.8359375 15.1953125 C-4 15 -4 15 -6 13 C-6.30078125 10.72265625 -6.30078125 10.72265625 -6.3125 8.0625 C-6.32925781 7.18722656 -6.34601562 6.31195312 -6.36328125 5.41015625 C-6 3 -6 3 -4.66796875 1.18359375 C-3 0 -3 0 0 0 Z " fill="#090909" transform="translate(6,10)"/>
<path d="M0 0 C1.98 0 3.96 0 6 0 C6 3.3 6 6.6 6 10 C6.99 10.33 7.98 10.66 9 11 C8.67 11.66 8.34 12.32 8 13 C7.34 13 6.68 13 6 13 C5.34 14.32 4.68 15.64 4 17 C0.17053157 15.54744301 -1.12050295 13.57104439 -3 10 C-2.01 10 -1.02 10 0 10 C0 6.7 0 3.4 0 0 Z " fill="#E9972E" transform="translate(15,18)"/>
<path d="M0 0 C0.8146875 0.00257812 1.629375 0.00515625 2.46875 0.0078125 C3.2834375 0.00523438 4.098125 0.00265625 4.9375 0 C6.96875 0.1328125 6.96875 0.1328125 7.96875 1.1328125 C8.171875 3.12890625 8.171875 3.12890625 8.21875 5.5703125 C8.25742187 6.77494141 8.25742187 6.77494141 8.296875 8.00390625 C8.18859375 8.70644531 8.0803125 9.40898437 7.96875 10.1328125 C6.97875 10.7928125 5.98875 11.4528125 4.96875 12.1328125 C5.29875 10.8128125 5.62875 9.4928125 5.96875 8.1328125 C1.51375 8.6278125 1.51375 8.6278125 -3.03125 9.1328125 C-3.12890625 2.98046875 -3.12890625 2.98046875 -3.03125 1.1328125 C-2.03125 0.1328125 -2.03125 0.1328125 0 0 Z " fill="#4C4C4C" transform="translate(15.03125,1.8671875)"/>
<path d="M0 0 C2 2 2 2 2.1953125 4.1640625 C2.17210937 4.97617187 2.14890625 5.78828125 2.125 6.625 C2.10695313 7.44226563 2.08890625 8.25953125 2.0703125 9.1015625 C2.03550781 10.04128906 2.03550781 10.04128906 2 11 C-3.41538462 12.23076923 -3.41538462 12.23076923 -6.375 11.0625 C-6.91125 10.711875 -7.4475 10.36125 -8 10 C-7.34 7.36 -6.68 4.72 -6 2 C-4.02 2 -2.04 2 0 2 C0 1.34 0 0.68 0 0 Z " fill="#252525" transform="translate(32,12)"/>
<path d="M0 0 C0.33 0 0.66 0 1 0 C0.6875 3.375 0.6875 3.375 0 7 C-2.99738941 8.99825961 -3.63347508 9.27550398 -7 9.25 C-7.680625 9.25515625 -8.36125 9.2603125 -9.0625 9.265625 C-11 9 -11 9 -14 7 C-14.6875 4.875 -14.6875 4.875 -15 3 C-13.68 3 -12.36 3 -11 3 C-9.25 5 -9.25 5 -8 7 C-7.01 6.67 -6.02 6.34 -5 6 C-4.67 5.34 -4.34 4.68 -4 4 C-3.34 4 -2.68 4 -2 4 C-2 3.34 -2 2.68 -2 2 C-1.34 2 -0.68 2 0 2 C0 1.34 0 0.68 0 0 Z " fill="#1D1D1A" transform="translate(25,27)"/>
<path d="M0 0 C0 0.99 0 1.98 0 3 C0.99 3.33 1.98 3.66 3 4 C1.375 5.625 1.375 5.625 -1 7 C-5.21995552 6.1560089 -6.57623483 5.63564775 -9 2 C-5.5647952 -0.29013653 -4.014669 -0.17842973 0 0 Z " fill="#2A2A2A" transform="translate(22,9)"/>
<path d="M0 0 C0.33 0 0.66 0 1 0 C1.625 3.375 1.625 3.375 2 7 C0 9 0 9 -2.1640625 9.1953125 C-3.38222656 9.16050781 -3.38222656 9.16050781 -4.625 9.125 C-5.44226563 9.10695313 -6.25953125 9.08890625 -7.1015625 9.0703125 C-7.72804688 9.04710937 -8.35453125 9.02390625 -9 9 C-9 9.66 -9 10.32 -9 11 C-9.99 11 -10.98 11 -12 11 C-12 9.02 -12 7.04 -12 5 C-11.13375 5.33 -10.2675 5.66 -9.375 6 C-6.04281725 6.98731341 -3.44840462 7.16420974 0 7 C0 4.69 0 2.38 0 0 Z " fill="#0B0B0B" transform="translate(34,16)"/>
<path d="M0 0 C0 0.66 0 1.32 0 2 C-1.98 2 -3.96 2 -6 2 C-5.938125 3.423125 -5.938125 3.423125 -5.875 4.875 C-6 8 -6 8 -8 10 C-8.12375 9.195625 -8.2475 8.39125 -8.375 7.5625 C-8.684375 6.2940625 -8.684375 6.2940625 -9 5 C-9.66 4.67 -10.32 4.34 -11 4 C-7.65667474 -0.27945633 -5.29105716 -0.4070044 0 0 Z " fill="#5E5E5E" transform="translate(32,12)"/>
<path d="M0 0 C1.32 0 2.64 0 4 0 C4 2.64 4 5.28 4 8 C2.68 8 1.36 8 0 8 C0 5.36 0 2.72 0 0 Z " fill="#E74F00" transform="translate(16,19)"/>
<path d="M0 0 C0 1.98 0 3.96 0 6 C-0.33 6 -0.66 6 -1 6 C-1.33 7.65 -1.66 9.3 -2 11 C-1.01 11 -0.02 11 1 11 C0.67 11.66 0.34 12.32 0 13 C-0.99 12.67 -1.98 12.34 -3 12 C-3 8.7 -3 5.4 -3 2 C-4.98 2 -6.96 2 -9 2 C-9 1.67 -9 1.34 -9 1 C-5.846632 0.29925156 -3.27275026 0 0 0 Z " fill="#504D43" transform="translate(24,16)"/>
<path d="M0 0 C0.66 0 1.32 0 2 0 C2 2.97 2 5.94 2 9 C1.01 9 0.02 9 -1 9 C-0.67 7.02 -0.34 5.04 0 3 C-0.33 3.33 -0.66 3.66 -1 4 C-2.66617115 4.04063832 -4.33388095 4.042721 -6 4 C-5.38125 3.71125 -4.7625 3.4225 -4.125 3.125 C-1.86674235 2.06279958 -1.86674235 2.06279958 0 0 Z " fill="#4C4C49" transform="translate(13,19)"/>
<path d="M0 0 C-0.33 2.97 -0.66 5.94 -1 9 C-1.33 9 -1.66 9 -2 9 C-2.33 6.36 -2.66 3.72 -3 1 C-5.31 0.67 -7.62 0.34 -10 0 C-10 -0.33 -10 -0.66 -10 -1 C-3.375 -2.25 -3.375 -2.25 0 0 Z " fill="#1D1C1C" transform="translate(25,2)"/>
<path d="M0 0 C1 2 1 2 0.0625 5.125 C-0.288125 6.07375 -0.63875 7.0225 -1 8 C-1.66 8 -2.32 8 -3 8 C-3 6.68 -3 5.36 -3 4 C-5.97 3.505 -5.97 3.505 -9 3 C-9 2.67 -9 2.34 -9 2 C-6.94921875 1.77213542 -4.8984375 1.54427083 -2.84765625 1.31640625 C-0.98859771 1.18113386 -0.98859771 1.18113386 0 0 Z " fill="#100F0E" transform="translate(13,21)"/>
<path d="M0 0 C1.32 0.66 2.64 1.32 4 2 C4 2.66 4 3.32 4 4 C1.5 5.625 1.5 5.625 -1 7 C-1.04254356 5.00045254 -1.04080783 2.99958364 -1 1 C-0.67 0.67 -0.34 0.34 0 0 Z " fill="#2A2A2A" transform="translate(11,15)"/>
</svg>
