<?xml version="1.0" encoding="UTF-8"?>
<svg version="1.1" xmlns="http://www.w3.org/2000/svg" width="36" height="36">
<path d="M0 0 C0.86625 0.0103125 1.7325 0.020625 2.625 0.03125 C3.924375 0.01578125 3.924375 0.01578125 5.25 0 C7.625 0.53125 7.625 0.53125 9.45703125 2.328125 C11.17887144 5.57601085 10.3650051 8.03304409 9.625 11.53125 C10.285 11.20125 10.945 10.87125 11.625 10.53125 C16.9886082 10.07477271 16.9886082 10.07477271 19.296875 11.73046875 C21.05919072 14.11996153 20.99384084 15.65102447 20.9375 18.59375 C20.93363281 19.47160156 20.92976563 20.34945313 20.92578125 21.25390625 C20.625 23.53125 20.625 23.53125 18.625 25.53125 C12.16346154 26.80048077 12.16346154 26.80048077 9.625 25.53125 C9.8725 26.60375 10.12 27.67625 10.375 28.78125 C10.625 32.53125 10.625 32.53125 9.1875 34.96875 C5.41660809 37.26807434 3.01539697 36.94938304 -1.375 36.53125 C-4.375 34.53125 -4.375 34.53125 -5.125 32.71875 C-5.42154743 30.12396 -5.00534051 28.05261205 -4.375 25.53125 C-5.00148438 25.55445312 -5.62796875 25.57765625 -6.2734375 25.6015625 C-7.49933594 25.62863281 -7.49933594 25.62863281 -8.75 25.65625 C-9.96816406 25.69105469 -9.96816406 25.69105469 -11.2109375 25.7265625 C-13.375 25.53125 -13.375 25.53125 -15.375 23.53125 C-15.67578125 21.25390625 -15.67578125 21.25390625 -15.6875 18.59375 C-15.70425781 17.71847656 -15.72101562 16.84320312 -15.73828125 15.94140625 C-15.375 13.53125 -15.375 13.53125 -14.1171875 11.6953125 C-10.9562684 9.58330826 -7.97056534 10.88286937 -4.375 11.53125 C-4.7153125 9.9225 -4.7153125 9.9225 -5.0625 8.28125 C-5.375 4.53125 -5.375 4.53125 -4.20703125 2.328125 C-2.375 0.53125 -2.375 0.53125 0 0 Z " fill="#0A0A09" transform="translate(15.375,-0.53125)"/>
<path d="M0 0 C0.8146875 0.00257812 1.629375 0.00515625 2.46875 0.0078125 C3.2834375 0.00523438 4.098125 0.00265625 4.9375 0 C6.96875 0.1328125 6.96875 0.1328125 7.96875 1.1328125 C8.04054964 2.65209288 8.05267007 4.17448732 8.03125 5.6953125 C8.02222656 6.52160156 8.01320313 7.34789062 8.00390625 8.19921875 C7.99230469 8.83730469 7.98070312 9.47539062 7.96875 10.1328125 C8.62875 10.1328125 9.28875 10.1328125 9.96875 10.1328125 C14.47637332 10.63365954 17.39063391 12.38681643 20.96875 15.1328125 C20.96875 15.7928125 20.96875 16.4528125 20.96875 17.1328125 C19.21875 18.421875 19.21875 18.421875 16.96875 19.7578125 C16.22625 20.20382813 15.48375 20.64984375 14.71875 21.109375 C13.8525 21.61597656 13.8525 21.61597656 12.96875 22.1328125 C12.96875 21.4728125 12.96875 20.8128125 12.96875 20.1328125 C10.98875 20.4628125 9.00875 20.7928125 6.96875 21.1328125 C6.96875 21.7928125 6.96875 22.4528125 6.96875 23.1328125 C4.65875 23.4628125 2.34875 23.7928125 -0.03125 24.1328125 C-1.02125 26.6078125 -1.02125 26.6078125 -2.03125 29.1328125 C-2.36125 29.1328125 -2.69125 29.1328125 -3.03125 29.1328125 C-3.52332273 23.84303067 -2.31444073 22.1342012 0.96875 18.1328125 C1.63560938 15.58954142 1.63560938 15.58954142 0.96875 13.1328125 C0.30875 12.5346875 -0.35125 11.9365625 -1.03125 11.3203125 C-3.3169889 8.82028558 -3.32638802 8.19779064 -3.34375 4.9453125 C-2.9542294 0.19316115 -2.9542294 0.19316115 0 0 Z " fill="#4C4C4C" transform="translate(15.03125,1.8671875)"/>
<path d="M0 0 C4.95113591 0.48699697 6.32030366 1.96797918 9.8125 5.375 C8.66076645 7.84300047 7.76466435 9.42283565 5.8125 11.375 C3.68359375 11.60546875 3.68359375 11.60546875 1.25 11.5625 C0.04150391 11.55283203 0.04150391 11.55283203 -1.19140625 11.54296875 C-3.1875 11.375 -3.1875 11.375 -4.1875 10.375 C-4.2854057 8.87761876 -4.31724864 7.37557108 -4.3125 5.875 C-4.31507812 5.0603125 -4.31765625 4.245625 -4.3203125 3.40625 C-4.10048921 0.04424677 -3.45154899 0.40606459 0 0 Z " fill="#454444" transform="translate(6.1875,11.625)"/>
<path d="M0 0 C1.33855056 0.78281305 2.67073644 1.57651877 4 2.375 C5.11375 3.03628906 5.11375 3.03628906 6.25 3.7109375 C7.11625 4.34902344 7.11625 4.34902344 8 5 C8 5.66 8 6.32 8 7 C6.25 8.2890625 6.25 8.2890625 4 9.625 C3.2575 10.07101563 2.515 10.51703125 1.75 10.9765625 C0.88375 11.48316406 0.88375 11.48316406 0 12 C0 11.01 0 10.02 0 9 C-3.3 9 -6.6 9 -10 9 C-10 7.02 -10 5.04 -10 3 C-6.7 3 -3.4 3 0 3 C0 2.01 0 1.02 0 0 Z " fill="#DD943A" transform="translate(28,12)"/>
<path d="M0 0 C-0.33 1.65 -0.66 3.3 -1 5 C-4.61973402 6.31626692 -7.09567131 7 -11 7 C-11.309375 8.134375 -11.61875 9.26875 -11.9375 10.4375 C-13 14 -13 14 -14 15 C-15.99958364 15.04080783 -18.00045254 15.04254356 -20 15 C-20 14.67 -20 14.34 -20 14 C-18.35 13.67 -16.7 13.34 -15 13 C-14.34 10.03 -13.68 7.06 -13 4 C-13.66 3.67 -14.32 3.34 -15 3 C-12 3 -9 3 -6 3 C-5.34 2.505 -4.68 2.01 -4 1.5 C-2 0 -2 0 0 0 Z " fill="#272725" transform="translate(36,19)"/>
<path d="M0 0 C1.31223496 3.93670488 0.24296256 6.12488144 -1 10 C-3.31 10.33 -5.62 10.66 -8 11 C-8.66 10.01 -9.32 9.02 -10 8 C-9.125 4.8125 -9.125 4.8125 -8 2 C-5.36 2 -2.72 2 0 2 C0 1.34 0 0.68 0 0 Z " fill="#161616" transform="translate(22,23)"/>
<path d="M0 0 C-0.01160156 0.63808594 -0.02320313 1.27617187 -0.03515625 1.93359375 C-0.04417969 2.75988281 -0.05320312 3.58617187 -0.0625 4.4375 C-0.07410156 5.26121094 -0.08570313 6.08492187 -0.09765625 6.93359375 C-0.23267348 8.99163938 -0.23267348 8.99163938 1 10 C3.67058851 10.14115161 6.32432238 10.04247107 9 10 C9.66 7.69 10.32 5.38 11 3 C13 6 13 6 12.8125 8.5625 C12 11 12 11 9 13 C7.0625 13.265625 7.0625 13.265625 5 13.25 C4.319375 13.25515625 3.63875 13.2603125 2.9375 13.265625 C1 13 1 13 -2 11 C-3.33387573 7.77646698 -2.83090317 5.32361268 -2 2 C-4.31 2 -6.62 2 -9 2 C-9 1.67 -9 1.34 -9 1 C-2.25 0 -2.25 0 0 0 Z " fill="#030303" transform="translate(13,23)"/>
<path d="M0 0 C0.33 0 0.66 0 1 0 C1 1.65 1 3.3 1 5 C4.3 5 7.6 5 11 5 C11 5.33 11 5.66 11 6 C9.02 6.33 7.04 6.66 5 7 C5 7.66 5 8.32 5 9 C2.69 9.33 0.38 9.66 -2 10 C-2.66 11.65 -3.32 13.3 -4 15 C-4.33 15 -4.66 15 -5 15 C-5.35488519 11.18498419 -5.38197226 9.5175108 -3.0625 6.375 C-2.381875 5.59125 -1.70125 4.8075 -1 4 C-0.22166466 1.81785432 -0.22166466 1.81785432 0 0 Z " fill="#54534F" transform="translate(17,16)"/>
<path d="M0 0 C-0.33 1.32 -0.66 2.64 -1 4 C2.465 3.505 2.465 3.505 6 3 C6 3.99 6 4.98 6 6 C2.31348178 6.64196266 -1.25331341 7.15094565 -5 7 C-7.6875 4.5625 -7.6875 4.5625 -9 2 C-5.5647952 -0.29013653 -4.014669 -0.17842973 0 0 Z " fill="#2E2E2E" transform="translate(22,9)"/>
<path d="M0 0 C0 0.66 0 1.32 0 2 C-0.99 2.33 -1.98 2.66 -3 3 C-3 5.97 -3 8.94 -3 12 C-0.36 12.33 2.28 12.66 5 13 C5 13.33 5 13.66 5 14 C3.54364629 14.22174933 2.08477044 14.42698698 0.625 14.625 C-0.18710938 14.74101562 -0.99921875 14.85703125 -1.8359375 14.9765625 C-2.55007813 14.98429687 -3.26421875 14.99203125 -4 15 C-6.51012963 12.48987037 -6.29721609 11.53194763 -6.3125 8.0625 C-6.32925781 7.18722656 -6.34601562 6.31195312 -6.36328125 5.41015625 C-6 3 -6 3 -4.66796875 1.18359375 C-3 0 -3 0 0 0 Z " fill="#0E0D0D" transform="translate(6,10)"/>
<path d="M0 0 C3.3 0 6.6 0 10 0 C10 1.32 10 2.64 10 4 C6.7 4 3.4 4 0 4 C0 2.68 0 1.36 0 0 Z " fill="#EC5A00" transform="translate(19,16)"/>
<path d="M0 0 C1.65 1.32 3.3 2.64 5 4 C3.62308038 6.75383923 1.63279958 7.51483101 -1 9 C-1.09765625 2.84765625 -1.09765625 2.84765625 -1 1 C-0.67 0.67 -0.34 0.34 0 0 Z " fill="#2C2C2C" transform="translate(11,13)"/>
<path d="M0 0 C0.66 0 1.32 0 2 0 C2.1875 2.875 2.1875 2.875 2 6 C1.01 6.66 0.02 7.32 -1 8 C-1 7.01 -1 6.02 -1 5 C-2.65 5 -4.3 5 -6 5 C-6 4.67 -6 4.34 -6 4 C-4.02 4 -2.04 4 0 4 C0 2.68 0 1.36 0 0 Z " fill="#F59E23" transform="translate(29,16)"/>
<path d="M0 0 C-0.33 2.97 -0.66 5.94 -1 9 C-1.33 9 -1.66 9 -2 9 C-2.33 6.36 -2.66 3.72 -3 1 C-5.31 0.67 -7.62 0.34 -10 0 C-10 -0.33 -10 -0.66 -10 -1 C-3.375 -2.25 -3.375 -2.25 0 0 Z " fill="#1D1C1C" transform="translate(25,2)"/>
<path d="M0 0 C0.66 0 1.32 0 2 0 C1.6875 3.375 1.6875 3.375 1 7 C0.01 7.66 -0.98 8.32 -2 9 C-2 5.8525787 -1.399734 4.71198463 0 2 C0 1.34 0 0.68 0 0 Z " fill="#131212" transform="translate(15,15)"/>
<path d="M0 0 C0 0.99 0 1.98 0 3 C-3.3 3 -6.6 3 -10 3 C-10 2.67 -10 2.34 -10 2 C-3.375 0 -3.375 0 0 0 Z " fill="#605F54" transform="translate(28,12)"/>
</svg>
