<?xml version="1.0" encoding="UTF-8"?>
<svg version="1.1" xmlns="http://www.w3.org/2000/svg" width="33" height="33">
<path d="M0 0 C4.94353493 4.69635818 6.77579056 7.88485992 7.125 14.75 C6.95791648 20.37300316 5.82008014 23.62126912 2.203125 27.88671875 C-2.56619011 32.05440007 -7.23539559 31.79729414 -13.36328125 31.6875 C-18.82273985 31.14359379 -21.19482371 28.71452303 -24.875 24.9375 C-27.3725937 19.46200612 -27.34688497 14.28846632 -26.5 8.375 C-24.85637444 4.26943317 -22.41583544 2.06746094 -18.9375 -0.5625 C-12.55446112 -2.53543929 -6.1154197 -2.839302 0 0 Z " fill="#554F49" transform="translate(26.5,1.625)"/>
<path d="M0 0 C2.08218362 -0.10832169 4.16599129 -0.18573541 6.25 -0.25 C7.99023438 -0.31960937 7.99023438 -0.31960937 9.765625 -0.390625 C13 0 13 0 15.39453125 1.671875 C17.34906655 4.50618896 17.50792492 6.0820437 17.4375 9.5 C17.43621094 10.4384375 17.43492188 11.376875 17.43359375 12.34375 C16.93446314 15.4014871 16.13972212 16.78475828 14 19 C11.02119115 19.99293628 8.98398802 20.13406411 5.875 20.125 C4.98554688 20.12757812 4.09609375 20.13015625 3.1796875 20.1328125 C1 20 1 20 0 19 C-0.08651611 17.58429877 -0.10704904 16.164405 -0.09765625 14.74609375 C-0.09443359 13.89208984 -0.09121094 13.03808594 -0.08789062 12.15820312 C-0.07951172 11.26037109 -0.07113281 10.36253906 -0.0625 9.4375 C-0.05798828 8.53580078 -0.05347656 7.63410156 -0.04882812 6.70507812 C-0.03700225 4.46998686 -0.0205222 2.23502563 0 0 Z " fill="#5B524B" transform="translate(9,6)"/>
<path d="M0 0 C10.66224287 -0.62110153 10.66224287 -0.62110153 15.5 1.625 C20.44353493 6.32135818 22.27579056 9.50985992 22.625 16.375 C22.45791648 21.99800316 21.32008014 25.24626912 17.703125 29.51171875 C12.93380989 33.67940007 8.26460441 33.42229414 2.13671875 33.3125 C-3.32273985 32.76859379 -5.69482371 30.33952303 -9.375 26.5625 C-11.80357623 21.23831366 -11.85447968 15.76581331 -11 10 C-9.47265625 8.10546875 -9.47265625 8.10546875 -8 7 C-8.23203125 7.85851562 -8.23203125 7.85851562 -8.46875 8.734375 C-9.37387335 12.59445989 -9.80628731 16.08374734 -9 20 C-6.66943722 23.63616601 -3.90846333 27.04576834 0 29 C5.64887653 29.58748316 10.22020846 29.33473828 15 26 C18.71190621 21.89736682 19.64935205 18.55914192 19.38671875 13.1796875 C18.59713742 8.72932002 16.2228303 6.04300231 12.875 3.1875 C8.68619283 1.45734052 4.49482367 1.25310658 0 1 C0 0.67 0 0.34 0 0 Z " fill="#040404" transform="translate(11,0)"/>
<path d="M0 0 C2.08218362 -0.10832169 4.16599129 -0.18573541 6.25 -0.25 C7.99023438 -0.31960937 7.99023438 -0.31960937 9.765625 -0.390625 C13 0 13 0 15.39453125 1.671875 C17.34906655 4.50618896 17.50792492 6.0820437 17.4375 9.5 C17.43621094 10.4384375 17.43492188 11.376875 17.43359375 12.34375 C16.93446314 15.4014871 16.13972212 16.78475828 14 19 C11.02119115 19.99293628 8.98398802 20.13406411 5.875 20.125 C4.98554688 20.12757812 4.09609375 20.13015625 3.1796875 20.1328125 C1 20 1 20 0 19 C-0.08651611 17.58429877 -0.10704904 16.164405 -0.09765625 14.74609375 C-0.09443359 13.89208984 -0.09121094 13.03808594 -0.08789062 12.15820312 C-0.07951172 11.26037109 -0.07113281 10.36253906 -0.0625 9.4375 C-0.05798828 8.53580078 -0.05347656 7.63410156 -0.04882812 6.70507812 C-0.03700225 4.46998686 -0.0205222 2.23502563 0 0 Z M2 2 C2 7.28 2 12.56 2 18 C9.50804268 18.75537176 9.50804268 18.75537176 13 15.9375 C15.50639423 12.25623347 15.71525283 10.37098953 15 6 C13.71107713 3.37716666 13.71107713 3.37716666 11 2 C7.91795892 1.67641221 5.11556103 1.8167317 2 2 Z " fill="#F09233" transform="translate(9,6)"/>
<path d="M0 0 C5.20086709 -0.94329452 9.78253462 -0.60873269 14.5 1.75 C19.83544304 6.55189873 19.83544304 6.55189873 20.29296875 10.578125 C20.25816406 11.45984375 20.22335938 12.3415625 20.1875 13.25 C20.16042969 14.14203125 20.13335938 15.0340625 20.10546875 15.953125 C20.07066406 16.62859375 20.03585938 17.3040625 20 18 C18.68 18 17.36 18 16 18 C15.96261719 17.38511719 15.92523437 16.77023438 15.88671875 16.13671875 C15.78810547 14.92435547 15.78810547 14.92435547 15.6875 13.6875 C15.62949219 12.88699219 15.57148438 12.08648437 15.51171875 11.26171875 C14.8865635 8.49862799 14.34680774 7.58784013 12 6 C9.10242114 5.49453971 9.10242114 5.49453971 5.9375 5.4375 C0.20833333 5.20833333 0.20833333 5.20833333 -2 3 C-1.34 2.01 -0.68 1.02 0 0 Z " fill="#655D56" transform="translate(10,1)"/>
<path d="M0 0 C0.33 0 0.66 0 1 0 C1.66219981 5.29759847 1.49122566 9.00679543 -1.6875 13.4375 C-4.22461687 16.40533671 -6.05782693 18.26657245 -10 19 C-13.02401017 19.23180566 -15.98819626 19.40236278 -19 19 C-21.1385485 16.8614515 -21.42655063 15.86724686 -22 13 C-21.01 13.495 -21.01 13.495 -20 14 C-18.37834248 14.12148305 -16.75115673 14.17543652 -15.125 14.1875 C-14.26132813 14.20167969 -13.39765625 14.21585938 -12.5078125 14.23046875 C-9.842211 13.98549914 -8.25676724 13.41236435 -6 12 C-3.89639423 8.8999494 -3.50005752 5.66708848 -3 2 C-2.67 2 -2.34 2 -2 2 C-2 3.98 -2 5.96 -2 8 C-1.34 8 -0.68 8 0 8 C0 5.36 0 2.72 0 0 Z " fill="#3E3B38" transform="translate(30,11)"/>
<path d="M0 0 C0.66 0.33 1.32 0.66 2 1 C2 1.99 2 2.98 2 4 C-0.64738916 5.4606285 -1.89448334 6 -5 6 C-3.63016497 2.83884224 -3.0109362 2.0072908 0 0 Z " fill="#373736" transform="translate(8,1)"/>
</svg>
