<?xml version="1.0" standalone="no"?>
<!DOCTYPE svg PUBLIC "-//W3C//DTD SVG 20010904//EN"
 "http://www.w3.org/TR/2001/REC-SVG-20010904/DTD/svg10.dtd">
<svg version="1.0" xmlns="http://www.w3.org/2000/svg"
 width="33.000000pt" height="33.000000pt" viewBox="0 0 33.000000 33.000000"
 preserveAspectRatio="xMidYMid meet">

<g transform="translate(0.000000,33.000000) scale(0.100000,-0.100000)"
fill="#000000" stroke="none">
<path d="M105 306 c-117 -54 -126 -213 -15 -275 74 -41 167 -15 209 59 40 71
20 151 -50 203 -34 25 -105 31 -144 13z m130 -61 c33 -32 36 -114 6 -144 -22
-22 -72 -34 -117 -29 l-29 3 -3 98 -3 97 61 0 c51 0 65 -4 85 -25z"/>
<path d="M112 173 l3 -78 36 -3 c52 -4 89 28 89 79 0 54 -27 79 -85 79 l-46 0
3 -77z"/>
</g>
</svg>
